<?xml version="1.0" standalone="no"?>
<!DOCTYPE svg PUBLIC "-//W3C//DTD SVG 20010904//EN"
 "http://www.w3.org/TR/2001/REC-SVG-20010904/DTD/svg10.dtd">
<svg version="1.0" xmlns="http://www.w3.org/2000/svg"
 width="875.000000pt" height="875.000000pt" viewBox="0 0 875.000000 875.000000"
 preserveAspectRatio="xMidYMid meet">
<metadata>
Created by potrace 1.11, written by Peter Selinger 2001-2013
</metadata>
<g transform="translate(0.000000,875.000000) scale(0.100000,-0.100000)"
fill="#000000" stroke="none">
<path d="M4050 8478 c-5 -13 -9 -17 -9 -10 -1 14 -37 16 -46 2 -3 -5 -12 -10
-18 -10 -7 0 -6 4 3 11 13 9 13 10 0 6 -8 -2 -14 -11 -14 -20 1 -9 -2 -14 -7
-11 -5 3 -9 13 -9 22 -1 12 -5 10 -15 -8 -8 -14 -14 -20 -15 -13 0 7 -18 11
-45 11 -28 0 -45 -4 -45 -11 0 -8 -3 -9 -8 -2 -9 14 -50 17 -57 4 -4 -5 -26
-9 -51 -9 -34 0 -43 -3 -38 -12 5 -8 0 -7 -11 2 -17 13 -18 13 -13 -1 5 -14 0
-15 -34 -12 -28 4 -38 2 -34 -6 4 -6 2 -11 -3 -11 -6 0 -11 5 -11 10 0 6 -4
10 -10 10 -5 0 -7 -6 -4 -14 7 -18 -12 -30 -22 -15 -5 8 -3 9 7 4 8 -5 11 -4
6 0 -9 10 -46 15 -45 6 2 -19 -4 -24 -12 -11 -7 11 -10 11 -10 2 0 -7 -4 -10
-10 -7 -5 3 -10 2 -10 -3 0 -5 -14 -8 -31 -6 -22 3 -28 0 -23 -9 6 -9 5 -9 -7
0 -9 7 -20 8 -29 3 -8 -5 -18 -6 -24 -3 -5 3 -6 1 -2 -5 4 -7 -3 -10 -21 -9
-17 1 -27 -3 -26 -10 4 -18 -25 -23 -32 -5 -6 15 -8 15 -21 -2 -10 -14 -14
-16 -14 -5 -1 10 -4 10 -14 -4 -9 -12 -16 -14 -21 -8 -3 6 -12 11 -18 10 -9 0
-8 -2 1 -6 6 -2 10 -9 7 -13 -3 -5 -13 -6 -22 -3 -10 4 -14 2 -10 -4 6 -9 -6
-13 -46 -14 -9 0 -15 -5 -11 -11 4 -6 -3 -5 -16 2 -18 10 -21 9 -15 -1 6 -9 3
-11 -8 -6 -10 3 -17 2 -17 -4 0 -6 -4 -7 -10 -4 -5 3 -10 1 -10 -5 0 -6 -5 -8
-12 -4 -8 5 -9 1 -5 -12 6 -16 5 -17 -5 -4 -16 20 -40 20 -45 0 -4 -13 -3 -13
6 0 6 8 11 10 11 4 0 -18 -13 -24 -27 -13 -9 8 -13 8 -13 1 0 -7 -7 -9 -17 -5
-12 5 -14 3 -8 -8 7 -11 5 -11 -10 1 -11 9 -16 10 -11 3 6 -12 -10 -18 -36
-14 -4 0 -5 -6 -2 -13 4 -11 -2 -14 -20 -12 -14 2 -26 -1 -26 -7 0 -5 -7 -4
-15 3 -13 11 -14 10 -9 -4 5 -12 2 -15 -12 -9 -11 4 -15 3 -10 -5 3 -6 2 -13
-4 -17 -5 -3 -10 0 -10 7 0 10 -2 10 -9 0 -4 -8 -11 -13 -15 -13 -20 3 -26 0
-21 -9 3 -6 -1 -7 -9 -4 -9 3 -16 1 -16 -5 0 -6 -5 -11 -11 -11 -5 0 -8 4 -4
9 3 5 1 13 -5 16 -6 4 -10 3 -9 -2 4 -22 -3 -31 -21 -28 -11 2 -23 -1 -26 -7
-4 -7 -2 -8 4 -4 7 4 12 2 12 -3 0 -6 -15 -11 -32 -11 -26 0 -30 -3 -18 -11
12 -9 10 -10 -8 -6 -16 4 -22 2 -19 -7 3 -7 -1 -13 -9 -13 -7 0 -11 5 -7 10 3
5 -6 1 -21 -8 -14 -10 -26 -21 -26 -25 0 -5 -10 -6 -22 -3 -19 4 -20 3 -8 -6
12 -8 8 -11 -20 -11 -26 0 -31 -3 -20 -10 11 -7 7 -10 -19 -10 -25 0 -32 -4
-28 -14 4 -10 1 -13 -9 -9 -8 3 -14 -1 -14 -8 0 -11 -3 -11 -10 1 -6 9 -10 10
-10 3 0 -6 -9 -15 -20 -18 -11 -3 -20 -11 -20 -17 0 -6 7 -5 18 3 15 13 16 12
3 -4 -10 -12 -17 -14 -26 -7 -9 8 -14 5 -18 -10 -3 -13 -13 -20 -30 -20 -14 0
-29 -4 -32 -10 -4 -6 1 -7 12 -4 14 5 15 4 4 -4 -8 -6 -19 -8 -26 -6 -6 3 -39
-15 -72 -40 -34 -24 -64 -42 -69 -38 -4 4 -4 -1 -1 -10 3 -10 3 -17 -1 -16 -4
1 -20 -5 -37 -15 -16 -9 -23 -17 -15 -17 11 0 10 -3 -4 -11 -13 -8 -20 -8 -25
-1 -4 7 -12 3 -20 -9 -10 -17 -10 -20 1 -13 10 6 9 3 -1 -10 -11 -13 -16 -14
-22 -4 -6 9 -9 5 -9 -12 0 -18 -3 -21 -9 -11 -7 12 -14 10 -38 -8 -15 -13 -27
-26 -25 -29 1 -4 -2 -7 -7 -7 -5 0 -13 -4 -18 -9 -5 -5 -3 -6 5 -2 6 4 12 2
12 -3 0 -6 -9 -11 -20 -11 -11 0 -23 -7 -26 -15 -4 -8 -10 -12 -15 -9 -5 3 -9
0 -9 -5 0 -6 -8 -11 -17 -11 -15 0 -16 -2 -3 -10 12 -8 12 -10 -5 -10 -11 0
-25 -10 -30 -22 -6 -13 -17 -22 -24 -20 -9 2 -11 -3 -7 -14 5 -14 4 -15 -9 -4
-13 11 -14 10 -9 -4 4 -12 0 -16 -16 -16 -11 0 -18 -4 -15 -10 3 -5 -1 -10
-10 -10 -9 0 -14 -4 -10 -9 3 -6 -4 -8 -15 -6 -12 2 -18 0 -14 -6 7 -12 -15
-41 -26 -34 -5 3 -11 -4 -15 -15 -4 -11 -10 -18 -15 -15 -5 3 -11 1 -15 -5 -3
-5 -1 -10 5 -10 6 0 8 -5 5 -10 -4 -6 -9 -8 -13 -6 -11 6 -32 -21 -24 -30 4
-5 0 -3 -9 4 -14 11 -17 10 -15 -5 0 -10 -4 -18 -11 -18 -16 0 -30 -15 -14
-15 7 0 -1 -11 -17 -25 -17 -14 -35 -25 -41 -25 -6 0 -11 -5 -11 -11 0 -5 5
-7 12 -3 6 4 8 3 4 -4 -3 -6 -15 -9 -25 -7 -12 2 -18 -2 -17 -13 0 -9 -5 -16
-12 -14 -8 1 -16 -7 -19 -18 -3 -11 -9 -17 -14 -14 -5 3 -9 -2 -9 -11 0 -10 5
-13 12 -9 7 5 8 3 4 -5 -5 -7 -14 -10 -22 -7 -9 3 -14 -1 -14 -13 0 -19 -30
-51 -48 -51 -6 0 -14 -4 -17 -10 -3 -6 2 -8 12 -5 10 3 9 1 -4 -6 -13 -7 -25
-21 -29 -32 -5 -16 -8 -17 -16 -6 -7 10 -8 8 -3 -7 4 -15 0 -24 -10 -28 -9 -3
-13 -11 -9 -17 4 -7 3 -9 -3 -6 -12 8 -47 -28 -39 -41 7 -11 -30 -42 -40 -34
-5 4 -2 -1 5 -11 12 -15 12 -17 -4 -10 -15 5 -17 3 -12 -11 4 -10 3 -15 -3
-11 -6 3 -10 1 -10 -5 0 -6 -5 -8 -10 -5 -6 4 -10 3 -9 -2 4 -21 -2 -34 -13
-27 -6 4 -8 3 -4 -4 3 -6 2 -13 -4 -17 -6 -4 -8 -11 -5 -16 4 -5 1 -9 -5 -9
-6 0 -16 -13 -21 -30 -6 -16 -15 -28 -19 -25 -5 3 -7 -3 -5 -14 3 -15 -1 -19
-17 -16 -17 4 -18 2 -6 -12 11 -14 10 -15 -12 -9 -17 5 -20 4 -12 -2 21 -14
19 -22 -8 -37 -14 -8 -19 -14 -10 -15 10 0 7 -5 -8 -16 -12 -8 -21 -23 -20
-32 2 -10 -3 -16 -11 -14 -12 3 -12 1 0 -14 9 -12 9 -15 2 -10 -9 5 -13 0 -13
-14 0 -12 -4 -18 -10 -15 -5 3 -10 -1 -10 -10 0 -10 -5 -13 -13 -9 -8 5 -7 2
2 -9 12 -15 12 -17 -3 -11 -9 4 -16 3 -15 -2 3 -20 -2 -35 -10 -30 -5 4 -7 -4
-3 -16 3 -14 2 -19 -6 -14 -8 5 -12 -1 -12 -15 0 -12 -8 -28 -17 -35 -10 -7
-19 -17 -19 -23 -1 -6 -2 -18 -3 -27 0 -8 -5 -13 -10 -10 -10 7 -9 -13 2 -31
5 -7 0 -10 -15 -6 -19 4 -20 3 -8 -6 14 -10 13 -12 -9 -15 -5 0 -13 -5 -18
-10 -5 -5 -3 -6 5 -2 16 9 16 -6 0 -22 -10 -10 -10 -15 2 -23 12 -9 12 -10 -4
-5 -15 5 -18 2 -14 -19 5 -22 3 -24 -11 -13 -9 7 -13 8 -9 4 4 -5 3 -16 -4
-23 -9 -11 -9 -17 3 -25 11 -8 11 -9 -3 -5 -9 3 -19 0 -22 -8 -3 -8 0 -15 7
-18 7 -2 2 -9 -11 -16 -19 -10 -21 -15 -11 -27 9 -11 8 -14 -5 -14 -9 0 -16
-5 -16 -11 0 -5 6 -7 13 -3 9 6 9 5 0 -7 -10 -12 -10 -18 0 -29 10 -12 9 -12
-3 -3 -13 10 -18 8 -28 -8 -7 -10 -8 -19 -3 -19 5 0 12 6 14 13 4 9 6 9 6 0 1
-6 -8 -18 -19 -26 -11 -8 -20 -27 -22 -45 -1 -18 -6 -32 -11 -32 -5 0 -7 -9
-4 -19 3 -12 -1 -22 -10 -25 -9 -4 -13 -13 -9 -22 3 -8 -1 -22 -9 -30 -8 -9
-15 -21 -15 -27 0 -7 4 -6 10 3 6 9 10 10 10 3 0 -6 -5 -15 -10 -18 -6 -4 -8
-11 -5 -16 4 -5 1 -17 -4 -26 -6 -10 -11 -13 -11 -8 0 6 -4 4 -9 -4 -7 -10 -4
-19 7 -28 16 -12 15 -12 -2 -6 -13 4 -17 3 -12 -5 9 -15 -3 -54 -14 -47 -5 3
-7 -4 -5 -15 2 -11 0 -20 -6 -20 -5 0 -9 -5 -9 -11 0 -5 4 -7 10 -4 5 3 10 4
10 0 0 -3 -10 -10 -22 -15 -14 -5 -17 -9 -7 -9 9 -1 15 -10 15 -25 0 -14 -4
-22 -8 -20 -5 3 -5 10 -2 16 4 6 2 8 -3 5 -6 -4 -8 -19 -5 -33 4 -21 2 -26 -9
-22 -20 8 -18 -40 2 -53 10 -6 11 -9 1 -9 -7 0 -12 -8 -10 -17 2 -11 -2 -17
-10 -15 -10 2 -12 -9 -9 -43 3 -38 1 -45 -11 -40 -12 4 -13 3 -2 -10 10 -12
10 -15 -1 -15 -11 0 -11 -2 1 -10 12 -8 12 -10 1 -10 -8 0 -11 -7 -8 -20 3
-11 0 -20 -6 -20 -6 0 -2 -7 9 -15 18 -14 18 -15 0 -9 -16 6 -17 4 -7 -15 9
-17 9 -21 -1 -19 -8 2 -12 -5 -10 -16 2 -10 -1 -15 -6 -12 -6 4 -7 -7 -2 -29
5 -21 4 -35 -1 -35 -6 0 -5 -8 1 -19 14 -28 13 -34 -7 -27 -14 6 -14 4 2 -14
11 -12 15 -21 10 -20 -22 5 -27 -1 -15 -15 11 -13 10 -14 -1 -10 -11 4 -14 -5
-13 -39 1 -24 4 -49 8 -55 4 -6 3 -11 -3 -11 -7 0 -7 -8 -1 -25 6 -15 6 -26
-1 -30 -5 -4 -6 -11 -3 -17 11 -18 6 -71 -8 -79 -10 -7 -9 -9 4 -9 9 0 19 6
21 13 4 9 6 9 6 -1 1 -7 -6 -15 -14 -18 -12 -5 -13 -10 -4 -20 6 -8 8 -14 3
-14 -5 0 -7 -25 -6 -55 2 -30 8 -53 13 -49 5 3 9 0 9 -5 0 -6 -6 -11 -14 -11
-8 0 -18 -5 -21 -10 -4 -6 -1 -9 7 -8 16 4 12 -43 -6 -54 -7 -5 -5 -8 6 -8 9
0 19 6 21 13 4 9 6 9 6 -1 1 -7 -6 -15 -14 -18 -12 -5 -13 -10 -4 -20 6 -8 8
-14 3 -14 -5 0 -7 -25 -6 -55 2 -30 8 -53 13 -49 5 3 9 0 9 -5 0 -6 -6 -11
-14 -11 -8 0 -18 -5 -21 -10 -4 -6 -1 -9 7 -8 16 4 12 -43 -6 -54 -7 -5 -5 -8
6 -8 9 0 19 6 21 13 4 9 6 9 6 -1 1 -7 -6 -15 -14 -18 -12 -5 -13 -10 -4 -20
7 -8 7 -14 2 -14 -10 0 -5 -51 6 -60 11 -9 32 -52 23 -46 -5 3 -16 -2 -23 -11
-8 -9 -9 -14 -3 -10 7 4 14 0 18 -8 3 -8 1 -15 -5 -15 -6 0 -6 -6 0 -18 7 -13
6 -23 -2 -31 -7 -7 -7 -12 -2 -11 21 5 24 -1 14 -27 l-10 -27 23 19 c12 11 18
13 12 5 -15 -20 -19 -130 -5 -130 6 0 11 -15 11 -33 0 -18 6 -39 13 -46 9 -11
9 -13 0 -7 -8 5 -13 1 -13 -9 0 -9 4 -14 9 -11 5 3 12 -6 16 -21 4 -17 2 -29
-7 -34 -9 -6 -7 -9 7 -9 17 0 17 -2 5 -10 -13 -9 -13 -10 0 -10 11 0 15 -11
15 -42 0 -31 4 -42 13 -40 8 1 11 -2 7 -8 -3 -5 0 -10 7 -10 8 0 9 -3 3 -8 -9
-6 -12 -31 -6 -59 1 -5 6 -1 11 7 5 8 10 11 11 5 4 -49 3 -75 -5 -75 -11 0 2
-15 15 -16 5 -1 11 -2 14 -3 3 0 -3 -13 -12 -28 -10 -15 -13 -24 -6 -20 15 9
37 -28 30 -53 -2 -10 4 -25 16 -35 11 -9 16 -20 11 -24 -5 -3 -10 -12 -12 -20
-3 -12 0 -12 13 -1 13 11 15 10 9 -4 -3 -9 -1 -16 4 -16 6 0 9 -10 7 -22 -3
-12 3 -31 13 -42 10 -12 11 -16 3 -11 -10 5 -12 4 -7 -3 4 -7 15 -12 24 -13
11 0 12 -3 5 -6 -7 -2 -13 -9 -13 -14 0 -6 5 -7 12 -3 7 5 9 2 5 -9 -3 -8 1
-21 9 -28 10 -8 11 -15 4 -24 -8 -10 -8 -15 1 -21 8 -5 9 -3 4 7 -8 12 -6 12
9 0 9 -8 13 -17 9 -20 -11 -8 -15 -31 -5 -31 4 0 14 6 22 12 12 11 12 10 3 -2
-12 -17 -14 -52 -2 -44 4 2 10 0 14 -6 3 -5 1 -10 -4 -10 -6 0 -11 -4 -11 -10
0 -5 7 -6 17 -3 10 4 14 2 10 -4 -4 -6 0 -16 8 -23 7 -6 11 -18 8 -26 -4 -10
0 -13 13 -8 16 5 17 4 4 -6 -11 -9 -12 -13 -2 -17 6 -2 12 -14 12 -26 0 -18 2
-19 10 -7 8 13 10 13 10 -2 0 -9 -6 -19 -12 -21 -8 -3 -5 -6 5 -6 10 -1 15 -6
12 -11 -3 -5 -1 -10 4 -10 6 0 11 -9 11 -20 0 -11 5 -20 10 -20 6 0 10 -12 10
-26 0 -14 4 -23 10 -19 5 3 10 -3 10 -14 0 -12 5 -21 11 -21 8 0 7 -5 -1 -15
-11 -13 -10 -14 6 -9 10 4 16 4 12 0 -4 -5 2 -18 13 -29 13 -14 16 -23 8 -28
-7 -4 -4 -9 10 -14 11 -3 21 -13 21 -22 0 -9 8 -22 17 -30 10 -8 13 -12 6 -9
-6 4 -15 2 -18 -4 -4 -6 -3 -10 2 -9 27 5 35 -1 23 -17 -8 -8 -9 -14 -4 -13 5
1 16 1 24 0 13 -1 13 -2 0 -11 -13 -8 -12 -10 3 -10 14 0 17 -5 13 -22 -3 -13
-3 -18 0 -11 4 10 8 10 19 0 7 -7 11 -15 8 -19 -2 -5 1 -8 7 -8 7 0 10 -6 8
-12 -3 -7 4 -22 15 -33 11 -11 17 -14 13 -8 -10 19 -1 16 15 -4 8 -10 9 -14 2
-10 -8 5 -11 1 -10 -12 1 -15 4 -17 14 -10 9 8 11 6 8 -10 -3 -14 1 -21 12
-21 10 0 13 -6 9 -16 -4 -11 -2 -15 8 -11 10 4 13 1 10 -8 -3 -7 4 -19 16 -25
12 -6 19 -18 16 -25 -3 -10 0 -12 11 -8 13 5 15 2 11 -15 -4 -12 -1 -25 4 -29
7 -4 8 -1 3 8 -4 8 1 5 12 -6 11 -11 16 -23 11 -26 -5 -3 -3 -9 6 -12 9 -4 16
-14 16 -23 0 -10 3 -14 7 -10 4 3 13 -4 21 -16 8 -14 11 -16 8 -5 -3 11 -2 15
4 12 6 -3 10 -11 10 -16 0 -16 27 -39 36 -31 5 4 2 -2 -6 -12 -8 -11 -10 -17
-3 -13 7 4 16 -4 24 -22 7 -16 17 -27 21 -25 4 3 8 -2 8 -10 0 -9 5 -16 11
-16 5 0 7 5 3 12 -5 7 -3 8 5 4 7 -5 10 -10 7 -13 -3 -3 2 -12 10 -20 8 -8 12
-19 9 -23 -3 -5 3 -7 14 -5 18 3 36 -24 32 -49 -1 -5 5 -4 13 4 16 12 21 5 17
-22 0 -5 9 -8 21 -8 19 0 20 -2 8 -10 -13 -8 -12 -10 3 -10 10 0 15 -4 12 -10
-5 -9 7 -14 27 -12 3 1 9 -5 12 -14 4 -10 2 -13 -7 -8 -9 5 -8 3 1 -7 11 -12
14 -12 23 1 9 13 10 12 6 -2 -7 -19 15 -42 29 -30 4 4 3 -1 -4 -10 -11 -14
-10 -16 11 -14 19 2 23 -1 20 -14 -3 -10 1 -21 8 -25 8 -6 10 -4 4 6 -8 12 -6
12 8 0 9 -7 15 -17 12 -21 -3 -5 0 -12 6 -16 8 -4 9 -3 5 4 -4 7 -2 12 3 12 6
0 11 -9 11 -20 0 -14 6 -20 18 -18 11 2 18 -4 20 -20 2 -12 8 -20 13 -17 5 4
9 1 9 -5 0 -6 4 -8 10 -5 5 3 10 2 10 -4 0 -5 -3 -11 -7 -14 -5 -2 -2 -2 6 0
7 2 20 -5 28 -14 8 -10 12 -13 9 -7 -3 6 1 11 9 11 11 0 12 -5 3 -20 -7 -14
-7 -17 1 -13 6 4 18 -2 28 -14 10 -11 24 -20 33 -20 13 0 13 -1 0 -10 -13 -8
-13 -10 2 -10 9 0 18 -5 20 -10 2 -6 13 -12 25 -13 12 0 19 -5 17 -9 -3 -4 0
-8 6 -8 6 0 9 -4 5 -9 -3 -6 3 -8 14 -6 14 2 18 -1 14 -11 -3 -9 2 -14 17 -14
11 0 19 -4 16 -8 -3 -5 6 -15 19 -22 14 -7 25 -17 25 -22 0 -4 7 -8 16 -8 8 0
12 -5 8 -11 -4 -8 0 -8 15 0 12 7 21 8 20 4 -3 -20 2 -31 17 -37 15 -6 15 -4
3 10 -13 16 -12 16 8 4 12 -8 19 -18 17 -22 -3 -4 2 -8 10 -8 9 0 16 -4 16
-10 0 -5 7 -10 16 -10 8 0 13 -4 10 -9 -7 -11 55 -42 69 -33 5 3 4 -2 -4 -11
-13 -16 -12 -17 12 -8 18 7 28 7 33 -1 4 -7 3 -8 -4 -4 -7 4 -12 2 -12 -3 0
-6 7 -11 16 -11 9 0 25 -10 36 -22 11 -13 17 -16 13 -8 -4 8 0 7 9 -4 8 -10
22 -16 31 -13 9 4 15 1 15 -10 0 -12 3 -13 13 -4 14 11 27 5 27 -13 0 -6 -5
-4 -11 4 -9 13 -10 13 -6 0 2 -9 13 -14 27 -12 19 3 22 0 16 -15 -6 -14 -5
-16 5 -6 15 15 33 17 24 4 -3 -5 5 -17 17 -25 15 -11 24 -12 29 -5 3 6 8 2 12
-10 3 -14 11 -19 25 -16 16 3 19 0 15 -13 -6 -15 -5 -16 12 -2 11 9 16 10 11
3 -4 -8 -1 -13 9 -13 10 0 13 -5 9 -13 -4 -6 -4 -9 1 -5 4 4 15 2 23 -5 13 -9
14 -9 8 1 -4 6 -2 12 3 12 6 0 11 -8 11 -17 0 -15 2 -16 10 -3 9 14 11 13 14
-9 0 -5 5 -13 10 -18 5 -4 6 -3 3 3 -4 7 3 14 18 16 21 4 23 3 13 -9 -6 -8 -7
-13 -2 -12 23 4 35 -2 28 -14 -5 -8 -2 -8 9 2 12 9 17 10 17 2 0 -7 5 -9 10
-6 9 5 14 -7 12 -26 -1 -4 8 -5 18 -2 11 3 20 0 20 -6 0 -6 14 -11 31 -11 21
0 28 -4 23 -12 -4 -7 -4 -10 1 -6 4 4 14 3 22 -4 11 -9 12 -7 6 8 -6 16 -4 17
9 7 8 -7 18 -10 21 -6 4 3 7 -1 7 -10 0 -9 5 -17 10 -17 6 0 10 5 10 10 0 6 6
5 14 -2 8 -7 12 -16 9 -20 -2 -5 0 -8 6 -8 5 0 12 6 14 13 4 9 6 9 6 0 1 -7 6
-13 13 -13 6 0 20 -8 30 -17 18 -16 18 -16 12 1 -6 16 -5 17 14 5 11 -7 18
-18 15 -24 -3 -5 0 -5 7 2 10 9 19 9 40 -2 19 -10 30 -11 37 -4 8 8 13 7 18
-2 6 -8 4 -10 -6 -4 -8 5 -11 4 -6 -1 5 -5 18 -10 30 -10 43 -3 47 -4 47 -18
0 -9 8 -12 25 -8 16 3 34 -2 48 -14 21 -19 21 -19 7 0 -14 18 -14 19 7 8 12
-7 24 -17 26 -24 3 -8 6 -6 6 5 1 9 6 17 11 17 6 0 9 -4 8 -9 -2 -5 2 -9 7 -9
6 0 9 5 7 12 -1 6 6 1 17 -12 19 -22 38 -31 26 -12 -3 6 1 7 9 4 9 -3 13 -10
10 -16 -3 -5 3 -4 15 4 18 11 23 10 35 -7 15 -20 15 -20 16 0 1 18 2 18 10 -2
5 -13 12 -23 15 -23 4 0 3 5 0 10 -9 14 7 12 28 -5 10 -7 30 -11 44 -9 18 3
23 1 17 -8 -6 -10 -3 -9 9 1 12 9 17 10 17 2 0 -9 5 -9 20 -1 15 8 20 8 20 -2
0 -9 3 -9 10 2 8 13 10 13 10 -2 0 -11 6 -16 20 -13 11 2 20 -2 20 -8 0 -7 4
-6 10 3 9 13 10 13 10 0 0 -13 1 -13 10 0 9 13 10 13 11 0 0 -10 3 -8 9 5 5
11 9 14 9 7 1 -7 7 -12 14 -11 23 3 38 -1 34 -9 -3 -4 8 -8 24 -9 21 -2 28 1
22 10 -5 9 -3 9 9 0 8 -7 18 -10 22 -6 3 4 13 -2 21 -13 9 -12 13 -13 10 -4
-4 11 1 16 15 16 11 0 20 -5 20 -11 0 -5 7 -1 15 9 15 20 15 20 15 0 0 -16 2
-17 10 -4 6 9 10 11 10 3 0 -7 7 -10 15 -7 8 4 12 11 8 17 -3 6 -1 7 6 3 6 -4
8 -12 5 -18 -5 -7 -1 -9 9 -5 10 3 17 2 17 -3 0 -5 19 -9 43 -9 23 1 44 0 47
-1 27 -10 41 -7 36 8 -4 10 3 6 15 -8 11 -14 18 -20 15 -14 -3 7 3 14 14 17
11 3 18 1 15 -3 -3 -5 -1 -12 5 -15 6 -4 10 -3 9 2 -3 20 2 25 16 13 8 -7 15
-9 15 -5 0 4 7 1 17 -6 15 -13 15 -12 4 10 -13 23 -13 23 10 8 16 -12 26 -13
35 -6 8 6 20 7 31 2 23 -11 74 -10 92 1 9 6 12 5 7 -2 -3 -6 -1 -14 5 -18 8
-4 9 -3 5 4 -4 7 -2 12 4 12 6 0 8 5 4 12 -5 9 -2 9 9 -1 9 -7 17 -9 17 -4 0
5 7 10 15 10 8 0 15 -5 15 -11 0 -6 4 -4 10 4 5 8 12 11 16 7 4 -4 13 -2 21 4
7 6 13 7 13 2 0 -13 66 -9 85 7 13 11 16 11 13 0 -2 -8 6 -13 20 -13 40 1 43
3 36 16 -5 7 -2 7 10 -2 9 -8 16 -10 14 -4 -3 9 5 15 15 12 16 -5 47 -4 47 3
0 4 5 8 11 8 5 0 7 -6 3 -12 -5 -9 -2 -9 9 1 12 9 17 10 17 2 0 -7 5 -9 10 -6
6 4 7 11 4 17 -4 6 2 6 15 -1 16 -9 19 -9 16 2 -4 9 7 12 46 11 39 -2 49 1 45
11 -3 9 0 12 10 8 8 -3 21 0 28 6 8 7 17 8 20 3 3 -5 17 -7 31 -5 13 3 23 8
21 12 -3 4 4 8 15 8 13 1 17 -2 12 -10 -4 -8 -1 -8 9 1 10 8 18 9 22 3 4 -6
13 -8 21 -5 8 4 13 9 11 13 -2 3 2 12 10 19 12 11 14 10 14 -5 0 -10 4 -14 8
-8 11 15 46 19 36 4 -5 -8 -3 -10 5 -5 7 5 10 13 8 20 -6 15 33 19 49 5 9 -7
16 -4 24 10 7 14 20 21 38 20 34 -1 59 5 69 16 4 4 2 5 -4 1 -9 -5 -11 -2 -7
8 5 14 8 14 21 0 14 -13 17 -13 32 1 10 8 29 15 43 15 40 0 57 10 51 28 -4 13
-2 12 10 -3 9 -11 17 -15 17 -7 0 6 6 11 13 10 6 -2 11 3 10 9 -2 8 6 12 20
10 12 -1 21 3 20 9 -1 6 10 9 29 6 16 -3 33 0 37 7 4 6 19 12 33 13 15 1 24 7
21 12 -4 5 1 7 10 3 10 -3 17 -2 17 4 0 6 5 7 12 3 8 -5 9 -2 4 11 -6 16 -4
16 11 4 14 -12 16 -12 8 0 -6 11 -3 13 13 9 16 -4 23 0 28 14 5 16 8 18 15 7
5 -8 9 -9 9 -4 0 13 50 36 50 23 0 -5 5 -6 10 -3 6 4 8 11 5 16 -3 5 1 6 9 3
9 -4 18 0 21 9 4 8 16 13 30 11 14 -1 28 3 32 8 3 6 1 8 -5 4 -6 -3 -14 -1
-18 6 -4 7 -4 10 0 6 4 -3 23 0 42 8 19 8 34 11 34 7 0 -5 10 3 21 17 11 14
17 18 13 10 -5 -11 -1 -10 13 3 12 10 28 19 36 21 17 2 48 31 42 40 -3 3 -2 4
2 1 3 -3 13 1 21 8 13 9 14 9 8 0 -4 -7 -2 -13 3 -13 6 0 11 5 11 11 0 5 5 7
12 3 8 -5 9 0 5 15 -6 22 -5 23 15 4 12 -10 18 -12 14 -5 -4 6 -2 12 3 12 6 0
11 8 11 18 0 14 2 15 10 2 8 -13 10 -13 10 2 0 12 5 15 17 11 12 -5 14 -3 8 8
-7 11 -5 11 10 -1 11 -9 16 -10 11 -2 -4 8 -1 12 9 12 11 0 15 5 11 16 -3 8
-2 13 3 9 5 -3 16 1 24 9 11 11 17 12 26 3 9 -9 11 -8 5 7 -5 13 -4 17 4 12
11 -7 17 6 13 27 -1 5 3 6 9 2 6 -3 7 -11 4 -17 -4 -7 -2 -8 4 -4 7 4 12 15
13 24 0 11 2 13 6 4 3 -9 11 -6 27 11 12 13 27 22 34 19 7 -2 12 4 12 13 0 9
4 14 9 10 5 -3 19 7 30 21 12 15 21 21 21 13 0 -11 2 -11 9 1 6 8 7 18 4 24
-3 5 -1 6 5 3 15 -10 42 3 42 20 0 8 5 11 12 7 8 -5 9 -2 4 11 -6 16 -4 16 11
4 15 -12 16 -12 10 3 -7 19 11 21 26 3 5 -6 7 -3 3 7 -3 11 3 23 14 31 11 8
17 18 12 23 -4 4 1 2 11 -5 15 -12 17 -12 11 4 -6 14 -4 16 6 10 10 -6 12 -4
6 11 -6 15 -4 16 5 7 9 -9 15 -8 26 3 8 8 19 12 24 8 12 -7 7 18 -6 29 -6 5
-3 6 8 3 12 -4 24 4 38 27 12 17 18 24 15 14 -3 -11 -2 -16 4 -12 6 3 10 13
10 21 0 8 7 17 15 20 8 4 12 10 9 15 -3 5 1 6 9 3 8 -3 18 0 23 7 5 8 3 10 -7
4 -8 -5 -5 1 5 13 21 24 31 29 20 10 -4 -8 -3 -10 2 -5 5 5 9 14 9 20 1 7 6
11 13 9 7 -1 11 4 10 10 -2 7 3 12 11 10 9 -2 11 3 7 13 -3 10 -2 14 5 10 6
-4 13 2 16 14 3 12 10 21 15 21 5 0 6 -4 3 -10 -3 -5 -4 -10 -1 -10 3 0 13 14
21 30 9 17 27 35 42 41 22 8 23 11 12 26 -8 9 -9 14 -4 11 14 -7 71 27 67 41
-1 6 6 11 15 11 14 0 15 2 4 9 -16 10 -3 20 22 16 15 -3 16 -1 6 11 -10 12 -9
13 6 8 12 -5 16 -4 12 3 -4 6 4 22 18 34 25 25 34 46 13 33 -7 -4 -8 -3 -4 5
4 6 12 9 17 6 5 -4 9 2 9 12 0 15 2 16 10 3 9 -13 10 -13 11 0 1 8 1 22 0 30
-2 13 0 13 8 1 15 -23 39 3 36 39 -2 23 0 28 9 20 16 -13 37 7 29 28 -4 10 -2
13 5 8 11 -7 17 6 13 27 -1 5 3 6 8 3 5 -3 14 1 21 9 11 13 10 14 -6 8 -16 -6
-17 -5 -4 9 8 9 17 14 20 13 3 -2 12 0 20 6 10 6 11 9 3 9 -7 0 -13 5 -13 11
0 5 4 8 9 5 5 -3 12 6 15 19 4 14 11 23 16 20 14 -9 23 15 10 30 -10 12 -8 13
9 10 11 -2 24 1 27 7 4 7 2 8 -4 4 -7 -4 -12 -2 -12 3 0 6 6 11 14 11 22 0 40
28 28 43 -9 10 -4 17 19 31 24 14 28 20 18 27 -12 7 -12 9 0 9 9 0 11 7 8 21
-5 17 -3 18 11 7 12 -10 14 -10 8 0 -4 6 -3 12 3 12 6 0 8 7 5 15 -7 18 12 20
20 3 3 -7 3 -3 0 10 -3 14 0 24 9 28 8 3 14 18 14 37 -1 20 4 31 11 29 7 -1
12 3 12 9 0 5 6 7 13 3 8 -5 7 -2 -2 9 -8 10 -11 20 -7 24 3 3 6 1 6 -5 0 -16
27 -4 34 15 5 12 3 13 -7 7 -7 -5 -5 -2 5 8 21 19 23 34 6 42 -7 4 -3 4 10 2
19 -4 21 -2 11 10 -10 12 -9 13 7 7 17 -6 17 -5 6 9 -11 14 -10 18 7 27 12 7
18 17 15 26 -4 10 0 15 11 15 9 0 13 5 10 10 -4 6 -12 7 -18 4 -7 -4 3 7 22
23 25 21 31 32 22 37 -9 6 -8 11 6 22 16 12 16 15 3 24 -12 8 -10 10 10 11 23
0 23 1 5 9 -11 5 -15 9 -8 9 7 1 17 11 24 22 9 17 8 20 -3 14 -7 -3 -5 0 5 8
10 8 19 28 20 45 1 20 6 28 16 24 11 -4 11 -1 2 16 -8 15 -8 23 1 28 6 4 8 3
4 -4 -3 -6 -3 -13 2 -16 4 -2 9 7 10 20 1 17 -2 23 -10 18 -7 -4 -8 -3 -4 4 4
7 14 12 22 12 8 0 14 5 14 11 0 5 -4 8 -8 5 -5 -3 -9 1 -9 9 0 8 4 12 9 9 4
-3 8 2 8 10 0 9 8 16 18 16 15 1 15 2 -2 15 -20 15 -20 15 0 16 11 0 14 3 6 6
-10 4 -9 8 5 19 14 10 15 13 3 14 -10 0 -7 5 8 16 12 8 22 21 21 27 0 9 -2 9
-6 0 -2 -7 -9 -13 -14 -13 -6 0 -5 8 1 20 6 11 15 18 20 15 6 -3 7 1 4 10 -4
8 0 23 7 32 10 12 10 15 1 9 -6 -4 -12 -3 -12 2 0 6 7 12 14 15 12 5 13 13 6
37 -5 17 -5 28 0 25 5 -3 12 0 16 6 3 6 0 15 -7 20 -11 7 -11 9 3 9 9 0 20 5
24 12 4 7 3 8 -4 4 -7 -4 -12 -3 -12 3 0 5 5 13 10 16 5 3 10 12 10 18 0 7 -4
6 -10 -3 -7 -10 -10 -11 -10 -2 0 7 6 15 14 18 8 3 12 13 9 25 -3 12 0 19 8
19 12 0 12 2 1 9 -11 7 -9 13 10 31 12 13 18 20 12 17 -7 -4 -15 0 -18 9 -3 8
-2 12 3 9 5 -3 12 -1 16 5 3 5 2 10 -4 10 -10 0 -9 13 6 50 8 18 7 27 -1 32
-7 5 -3 8 9 8 16 0 17 2 5 10 -13 8 -13 11 -1 22 11 11 13 11 6 -1 -6 -10 -4
-12 4 -7 9 6 9 11 -1 24 -11 13 -11 14 1 7 11 -6 13 -3 9 13 -4 12 -2 25 4 28
5 3 2 15 -9 27 -10 11 -13 17 -7 14 13 -8 27 19 19 34 -4 5 0 7 7 4 9 -4 13 4
13 25 0 19 -5 30 -14 30 -11 0 -9 4 5 16 19 15 19 16 0 9 -19 -6 -19 -5 -1 15
11 12 13 20 6 20 -7 0 -9 5 -6 10 4 6 11 7 17 4 7 -4 8 -2 4 4 -4 7 -3 28 3
47 7 25 6 35 -2 35 -8 0 -8 3 0 11 6 6 7 25 3 50 -4 22 -3 42 2 45 5 3 1 12
-9 20 -17 13 -17 14 1 8 15 -6 17 -3 11 17 -5 18 -4 21 4 9 6 -8 11 -13 12
-10 0 3 2 13 4 23 2 9 -1 15 -6 11 -5 -3 -9 0 -9 5 0 6 5 11 11 11 8 0 7 6 -2
17 -8 9 -9 14 -3 10 6 -3 11 0 11 8 0 8 -4 12 -9 9 -4 -3 -8 0 -8 5 0 6 6 11
13 11 8 0 7 4 -3 10 -12 8 -12 10 -1 10 10 0 11 3 2 13 -6 8 -8 17 -4 21 11
10 12 37 2 30 -5 -3 -9 0 -9 5 0 6 5 11 11 11 8 0 7 6 -2 17 -8 9 -9 14 -3 10
6 -3 11 0 11 8 0 8 -4 12 -9 9 -4 -3 -8 0 -8 5 0 6 6 11 13 11 8 0 7 4 -3 10
-9 6 -10 10 -3 10 6 0 11 9 10 20 -1 11 -5 20 -9 20 -4 0 -8 5 -8 11 0 5 3 8
8 6 4 -3 7 9 6 26 -1 22 -6 33 -19 36 -14 2 -15 5 -4 12 11 7 11 9 1 9 -8 0
-10 5 -6 12 11 18 12 48 2 48 -5 0 -6 5 -2 11 9 16 11 109 1 109 -4 0 -3 8 2
18 7 13 6 27 -5 47 -11 21 -11 31 -3 42 10 11 8 12 -5 7 -18 -7 -19 15 -1 28
6 5 6 8 -2 8 -6 0 -10 8 -8 18 1 9 -3 23 -9 31 -8 11 -8 13 0 8 7 -4 14 0 18
8 3 8 -2 19 -13 24 -10 6 -17 20 -16 33 1 13 -3 29 -9 37 -8 11 -8 13 2 7 16
-10 9 52 -10 84 -10 18 -10 24 -1 27 10 3 9 8 -2 20 -8 8 -12 19 -9 25 4 6 0
14 -7 19 -12 7 -12 9 0 9 10 0 10 6 -4 26 -9 15 -12 24 -7 20 6 -3 13 -2 17 4
3 5 -1 10 -9 10 -10 0 -13 6 -9 17 4 9 2 14 -3 10 -6 -3 -15 3 -22 14 -7 10
-9 19 -5 18 21 -3 23 3 9 23 -9 12 -16 39 -16 60 0 24 -5 38 -12 38 -10 0 -9
3 1 9 11 7 11 9 0 13 -11 4 -12 9 -2 26 11 18 10 20 -4 15 -11 -4 -14 -3 -9 5
4 7 2 12 -5 12 -10 0 -10 3 -1 12 7 7 12 17 12 22 0 6 -5 4 -11 -4 -9 -12 -10
-11 -6 7 4 16 1 20 -10 16 -13 -5 -13 -2 -4 14 9 17 7 24 -12 37 -12 9 -16 14
-9 11 16 -8 15 10 -2 24 -8 7 -12 21 -9 31 3 11 0 20 -6 20 -6 0 -11 17 -11
38 0 29 -3 34 -11 22 -9 -12 -10 -11 -6 8 4 16 1 22 -11 22 -15 0 -15 2 -2 10
12 8 12 10 -5 10 -17 0 -17 2 -5 10 13 8 8 14 -11 12 -3 0 -6 16 -7 36 -2 20
-10 40 -18 45 -8 5 -12 18 -10 33 4 18 0 24 -12 24 -15 0 -15 2 -2 10 12 8 12
10 -5 10 -17 0 -17 2 -5 10 13 8 13 10 -2 10 -11 0 -15 6 -11 20 6 22 -12 28
-21 8 -3 -7 -3 -1 0 14 4 20 2 30 -9 34 -9 3 -14 15 -12 30 2 17 -2 24 -11 20
-8 -3 -11 2 -9 14 2 11 -1 23 -7 26 -6 4 -8 2 -4 -4 3 -6 2 -13 -3 -17 -6 -3
-8 5 -5 20 2 14 0 25 -5 25 -6 0 -7 7 -4 17 4 10 2 14 -5 9 -6 -3 -13 -2 -17
4 -3 5 -1 10 5 10 6 0 4 7 -5 16 -9 9 -14 22 -12 29 3 6 1 18 -5 26 -8 11 -8
10 -4 -5 5 -16 4 -17 -9 -6 -8 7 -12 16 -9 21 3 5 -1 9 -8 9 -9 0 -9 3 -2 8 7
5 5 14 -9 27 -11 11 -16 14 -12 6 6 -10 4 -12 -4 -7 -9 6 -9 11 1 24 10 12 10
14 1 8 -8 -4 -13 -1 -13 9 0 9 -5 13 -11 10 -6 -4 -9 0 -7 11 2 11 -2 18 -8
17 -14 -2 -14 30 0 39 6 5 1 8 -11 8 -14 0 -23 6 -23 15 0 8 -4 15 -10 15 -5
0 -10 9 -10 19 0 11 -9 22 -20 26 -11 3 -19 9 -19 13 4 28 -4 42 -23 43 -18 1
-19 2 -5 6 9 2 15 9 11 14 -3 5 -10 7 -15 4 -5 -4 -9 3 -9 14 0 12 -5 21 -11
21 -5 0 -8 4 -4 9 3 5 0 13 -6 17 -8 4 -9 3 -5 -4 4 -7 2 -12 -3 -12 -6 0 -11
14 -11 32 0 17 -3 29 -6 25 -4 -3 -13 1 -21 9 -8 8 -20 11 -26 8 -9 -5 -9 -4
0 6 13 14 7 40 -9 40 -6 0 -4 -8 3 -17 13 -16 12 -17 -4 -4 -14 11 -15 16 -5
29 10 13 10 14 1 8 -8 -4 -13 -2 -13 4 0 7 -6 10 -13 7 -8 -3 -14 1 -14 9 0 7
5 10 10 7 6 -3 7 -1 3 5 -4 7 -17 12 -29 12 -18 0 -19 2 -7 10 13 8 13 10 -2
10 -12 0 -15 5 -11 17 5 12 2 15 -9 10 -12 -4 -15 0 -11 16 4 18 3 19 -6 7 -7
-10 -11 -11 -11 -2 0 6 -9 21 -20 32 -12 12 -18 25 -15 30 4 6 -1 7 -11 3 -12
-4 -15 -3 -10 6 12 18 -21 61 -47 61 -18 0 -19 2 -7 10 13 9 13 10 0 11 -8 1
-18 1 -22 1 -3 -1 -9 5 -12 14 -4 10 -2 13 6 8 7 -4 8 -3 4 4 -4 7 -17 12 -29
12 -18 0 -19 2 -7 10 13 8 12 10 -4 10 -13 0 -16 5 -12 16 5 14 4 15 -8 5 -11
-9 -17 -6 -30 13 -9 14 -16 30 -16 36 0 5 -5 9 -12 8 -6 -2 -17 8 -24 20 -8
17 -13 20 -17 10 -4 -8 -6 -7 -6 5 -1 10 -6 15 -11 12 -6 -4 -10 -3 -9 2 4 24
-3 35 -19 31 -15 -4 -18 0 -16 19 2 21 0 22 -14 11 -13 -11 -15 -10 -10 9 4
17 2 20 -10 16 -12 -5 -14 -2 -9 12 7 16 5 16 -10 4 -11 -9 -14 -10 -9 -1 4 7
2 12 -4 12 -6 0 -8 5 -5 10 3 6 -4 10 -17 10 -18 0 -20 2 -8 10 12 8 8 10 -15
11 -16 1 -33 1 -38 0 -4 0 -6 2 -6 6 4 22 -3 33 -18 34 -12 0 -14 2 -5 6 10 4
7 9 -9 17 -13 6 -29 23 -36 36 -7 14 -13 19 -13 13 0 -7 -5 -13 -11 -13 -5 0
-7 5 -3 12 5 7 1 9 -13 6 -15 -4 -20 -1 -19 11 0 9 -5 15 -12 13 -8 -1 -11 2
-8 7 8 12 -18 32 -43 34 -12 1 -20 6 -18 12 2 5 -5 18 -15 28 -20 19 -25 9 -5
-13 6 -8 2 -6 -10 4 -13 10 -20 24 -16 30 4 6 -1 5 -10 -3 -10 -8 -20 -11 -24
-7 -3 3 -1 6 7 6 10 0 10 3 0 15 -7 8 -17 12 -23 8 -6 -4 -8 0 -4 9 8 21 -3
31 -19 17 -9 -8 -15 -5 -24 10 -6 12 -18 21 -28 21 -15 0 -15 2 -2 10 21 13 3
13 -22 -1 -15 -8 -19 -8 -13 1 9 14 -22 50 -38 44 -16 -5 -38 10 -40 27 -2 8
-7 15 -12 15 -6 1 -9 -2 -7 -7 1 -5 -2 -9 -8 -9 -5 0 -10 6 -10 14 0 8 -5 18
-12 22 -7 4 -8 3 -4 -4 4 -7 3 -12 -2 -12 -6 0 -13 7 -16 16 -3 9 -12 14 -20
11 -10 -4 -12 1 -9 16 4 18 3 19 -6 7 -7 -10 -11 -11 -11 -2 0 6 -6 11 -12 10
-7 -2 -12 3 -10 10 2 10 -2 10 -20 1 -22 -12 -22 -11 -8 6 11 14 11 17 1 11
-8 -5 -17 -3 -22 5 -6 10 -9 11 -9 2 0 -7 -5 -13 -11 -13 -5 0 -7 5 -4 10 3 6
-1 10 -9 10 -9 0 -16 5 -16 10 0 6 -9 10 -21 10 -13 0 -18 4 -13 12 5 8 2 9
-9 5 -11 -4 -17 -1 -17 8 0 8 -5 15 -11 15 -5 0 -7 -4 -4 -10 3 -5 1 -10 -4
-10 -6 0 -11 5 -11 10 0 6 -7 10 -15 10 -8 0 -15 7 -15 15 0 8 -5 15 -11 15
-5 0 -8 -4 -4 -9 3 -5 1 -13 -5 -16 -6 -4 -10 -3 -9 2 4 22 -3 33 -20 33 -11
0 -23 5 -27 11 -3 6 -15 9 -25 6 -10 -3 -18 -2 -17 2 0 3 0 13 -1 21 -1 13 -2
13 -11 0 -8 -12 -10 -12 -16 3 -3 9 -10 14 -15 11 -5 -3 -7 -10 -4 -15 4 -5 1
-9 -4 -9 -10 0 -15 14 -12 33 2 11 -14 8 -28 -5 -10 -11 -12 -10 -9 0 2 8 -4
17 -12 22 -8 4 -29 15 -47 24 -30 15 -32 15 -36 -1 -4 -16 -5 -16 -6 1 -1 13
-6 17 -22 13 -16 -4 -18 -3 -9 8 8 10 8 13 -2 11 -7 -1 -18 -5 -24 -8 -6 -4
-18 2 -28 14 -15 17 -20 18 -27 7 -7 -11 -9 -10 -9 4 0 13 -6 16 -25 13 -17
-3 -23 -1 -19 6 5 8 1 9 -10 5 -9 -4 -14 -3 -11 2 3 5 1 12 -5 16 -5 3 -10 1
-10 -5 0 -7 -6 -10 -12 -7 -7 2 -12 9 -11 14 1 5 -4 10 -12 10 -8 0 -12 -5 -9
-11 3 -6 -2 -2 -10 8 -12 15 -16 16 -16 5 0 -12 -2 -12 -10 1 -5 8 -10 10 -10
3 0 -16 -31 -10 -45 10 -13 18 -31 24 -21 8 4 -5 -2 -8 -11 -6 -10 2 -22 4
-26 4 -5 1 -5 6 -1 12 4 7 1 10 -7 7 -8 -3 -19 1 -26 7 -6 7 -23 11 -37 10
-14 -2 -26 2 -26 8 0 5 -3 7 -7 4 -3 -4 -12 -2 -20 5 -11 9 -12 7 -6 -8 6 -17
5 -18 -13 -4 -10 8 -22 20 -26 25 -5 6 -8 6 -8 -2 0 -13 -18 -12 -40 2 -8 5
-28 8 -45 7 -24 -2 -27 -1 -15 8 12 9 9 11 -15 9 -65 -3 -86 1 -79 14 5 7 0 6
-11 -3 -11 -9 -16 -10 -11 -2 4 7 2 12 -8 12 -8 0 -17 -6 -19 -12 -4 -8 -6 -7
-6 4 -1 9 5 19 12 21 9 4 9 6 -1 6 -7 1 -15 -5 -18 -12 -4 -10 -44 -15 -64 -7
-3 1 -9 2 -13 1 -5 -1 -6 3 -2 9 4 7 -5 10 -27 8 -19 -1 -40 2 -47 7 -10 5
-12 4 -7 -3 4 -7 3 -12 -2 -12 -6 0 -13 7 -16 16 -6 17 -26 10 -26 -9 0 -7 4
-6 11 3 9 12 10 12 7 1 -7 -23 -25 -24 -31 -1 -3 11 -11 20 -19 20 -10 0 -9
-3 2 -10 12 -7 10 -9 -7 -7 -12 0 -20 4 -17 8 2 4 0 10 -5 13 -5 4 -12 2 -16
-3 -4 -7 -15 -7 -30 -1 -17 7 -25 6 -25 -1 0 -8 -4 -8 -13 -1 -7 6 -18 7 -27
2 -7 -4 -24 -4 -36 0 -14 6 -26 5 -29 0 -3 -6 -15 -6 -30 0 -17 6 -25 6 -25
-1 0 -6 -5 -7 -11 -3 -17 10 -109 10 -109 0 0 -5 -6 -3 -14 3 -10 9 -15 8 -20
-4 -3 -8 -11 -15 -18 -14 -10 0 -10 2 0 6 6 2 12 12 12 21 0 11 -3 13 -8 6
-11 -18 -58 -22 -54 -6 1 8 -2 11 -8 7 -5 -3 -10 -13 -10 -21 0 -8 -5 -14 -11
-14 -5 0 -8 4 -5 9 4 5 -19 11 -49 13 -30 1 -55 -1 -55 -6 0 -5 -6 -3 -14 3
-10 9 -15 8 -20 -4 -3 -8 -11 -15 -18 -14 -10 0 -10 2 0 6 6 2 12 12 12 21 0
11 -3 13 -8 6 -10 -17 -58 -22 -54 -6 4 20 -8 14 -18 -10z m-1325 -348 c3 -5
1 -10 -4 -10 -6 0 -11 5 -11 10 0 6 2 10 4 10 3 0 8 -4 11 -10z m1583 -101
c-2 -7 14 -12 40 -13 23 -1 42 2 42 7 0 4 6 5 13 0 19 -12 41 -9 55 7 10 12
12 12 10 1 -2 -11 9 -14 52 -12 40 1 51 -1 40 -8 -13 -9 -13 -11 2 -11 9 0 19
6 21 13 4 8 6 6 6 -4 1 -12 8 -15 27 -11 16 3 25 1 21 -5 -3 -5 0 -10 7 -10 8
0 12 5 10 11 -3 7 14 10 51 8 36 -3 62 1 73 10 15 11 16 11 5 -3 -14 -18 -8
-29 16 -29 14 0 14 2 1 10 -8 5 -11 10 -6 10 6 0 21 -10 34 -22 14 -13 22 -18
19 -12 -4 7 0 18 9 25 12 10 15 10 12 -1 -2 -10 8 -13 41 -11 34 2 41 0 35
-11 -6 -10 -4 -10 9 1 14 11 17 11 18 0 1 -8 1 -18 0 -22 -1 -5 3 -6 9 -2 6 3
7 12 3 18 -4 7 0 6 10 -2 9 -7 17 -9 17 -4 0 13 40 10 48 -4 10 -14 52 -23 52
-11 0 5 6 6 13 1 6 -4 21 -6 32 -5 17 2 18 1 5 -8 -12 -10 -11 -11 8 -7 12 3
22 1 22 -4 0 -5 10 -5 24 1 29 11 40 2 23 -18 -10 -13 -9 -14 1 -8 7 4 20 2
28 -5 12 -10 13 -9 9 4 -4 8 -1 18 5 22 6 4 9 1 8 -7 -2 -8 5 -12 18 -10 15 2
23 -4 27 -20 5 -18 9 -20 19 -10 16 16 31 16 22 0 -5 -8 -1 -8 12 2 10 8 16
10 12 6 -12 -14 25 -36 39 -24 9 8 13 7 14 -3 0 -8 4 -5 9 6 7 16 9 16 9 4 1
-19 16 -27 48 -24 12 1 25 -5 28 -13 3 -8 12 -11 20 -8 8 3 15 1 15 -4 0 -5 7
-7 15 -4 8 4 15 1 15 -5 0 -6 6 -10 13 -8 6 1 11 -4 9 -11 -2 -10 2 -10 18 -2
16 8 20 8 18 -2 -2 -8 5 -12 16 -10 11 2 26 -4 33 -14 7 -10 13 -12 13 -6 0 7
4 12 10 12 5 0 9 -6 7 -12 -1 -7 6 -12 15 -10 9 1 20 -3 24 -9 5 -8 3 -9 -6
-4 -9 5 -11 4 -6 -4 6 -9 11 -9 22 0 12 10 13 9 7 -7 -6 -16 -4 -17 9 -6 12
10 18 9 28 -3 11 -13 15 -13 21 -3 6 10 9 8 9 -6 0 -13 5 -17 20 -13 11 3 18
0 17 -6 -1 -6 3 -11 8 -12 6 0 26 -11 45 -25 22 -15 30 -18 21 -7 -12 15 -12
17 3 11 9 -3 16 -10 16 -15 0 -5 7 -9 16 -9 9 0 12 -5 8 -11 -5 -8 1 -10 20
-7 21 4 26 2 21 -10 -5 -13 -3 -13 12 -1 9 8 14 9 10 3 -4 -6 3 -20 16 -30 21
-19 21 -19 7 0 -14 18 -14 18 7 6 12 -8 19 -18 17 -22 -3 -4 0 -8 6 -8 6 0 8
-5 4 -12 -4 -7 -3 -8 5 -4 6 4 9 13 5 19 -3 7 1 4 9 -5 8 -10 20 -18 26 -18 7
0 9 -4 6 -10 -3 -5 1 -10 10 -10 9 0 13 5 10 10 -3 6 -2 10 3 10 5 0 12 -9 15
-20 3 -11 13 -20 22 -20 9 0 13 -4 10 -10 -3 -5 -2 -10 4 -10 5 0 12 6 14 13
3 7 6 4 6 -7 1 -12 6 -16 17 -12 8 3 12 2 9 -4 -3 -6 -1 -10 5 -10 6 0 8 -4 5
-10 -3 -5 -2 -10 4 -10 5 0 12 6 14 13 5 11 11 -18 8 -36 -1 -5 3 -6 9 -2 6 3
8 11 5 16 -4 5 -1 9 4 9 6 0 11 -4 11 -9 0 -6 13 -18 29 -27 17 -10 28 -21 25
-26 -3 -4 3 -5 12 -1 14 5 16 3 11 -11 -5 -14 -3 -16 12 -11 13 4 20 0 24 -15
3 -11 9 -20 14 -19 17 4 43 -14 36 -25 -4 -6 2 -4 12 4 11 9 16 10 11 3 -4 -7
-2 -13 3 -13 6 0 11 -7 11 -15 0 -9 6 -12 15 -9 14 6 20 -7 15 -31 -1 -5 2 -7
6 -3 4 4 13 0 21 -10 9 -10 11 -11 7 -2 -7 13 -5 13 9 1 9 -7 17 -10 17 -5 0
4 14 -5 30 -21 17 -16 30 -34 30 -41 0 -7 9 -15 19 -19 10 -3 21 -15 24 -27 5
-18 8 -19 21 -8 13 10 16 10 16 -1 0 -8 14 -21 32 -28 18 -8 27 -16 20 -19 -9
-3 -9 -7 1 -17 7 -7 15 -11 20 -8 4 2 7 -3 7 -12 0 -10 5 -13 12 -9 8 5 9 2 4
-11 -6 -16 -4 -16 11 -4 11 9 14 10 9 2 -4 -8 -2 -13 4 -13 6 0 8 -4 5 -10 -3
-5 1 -10 10 -10 9 0 13 -4 10 -10 -3 -5 2 -10 13 -10 26 0 34 -11 20 -27 -6
-8 -7 -13 -2 -12 22 4 35 -2 28 -13 -5 -7 -2 -9 9 -5 11 4 14 2 11 -7 -3 -8 0
-17 5 -21 6 -3 9 -10 6 -15 -3 -5 4 -15 15 -23 11 -7 17 -17 13 -21 -4 -4 1
-4 11 0 15 6 17 4 11 -6 -6 -10 -4 -12 8 -7 12 4 14 2 10 -10 -4 -11 -2 -14 5
-9 7 4 12 1 12 -8 0 -9 5 -16 10 -16 6 0 10 -9 10 -21 0 -11 5 -17 10 -14 6 3
10 1 10 -5 0 -15 26 -41 34 -33 3 4 6 1 6 -6 0 -7 4 -10 8 -7 5 3 9 0 9 -7 1
-34 22 -69 36 -60 4 2 7 -3 7 -11 0 -9 5 -16 10 -16 6 0 10 -7 10 -15 0 -19
44 -65 62 -65 9 0 9 -3 -2 -10 -12 -8 -12 -10 5 -10 17 0 17 -2 5 -10 -12 -8
-12 -10 5 -10 17 0 17 -2 5 -10 -13 -8 -12 -10 3 -10 9 0 17 -6 17 -14 0 -8 7
-16 15 -20 8 -3 15 -13 15 -21 0 -9 5 -13 10 -10 6 3 10 1 10 -4 0 -6 -4 -11
-10 -11 -5 0 -10 -4 -10 -10 0 -5 6 -7 14 -4 8 3 17 0 22 -7 5 -8 3 -10 -7 -4
-11 7 -12 6 -2 -7 7 -8 10 -18 6 -22 -4 -4 3 -9 15 -13 12 -3 19 -9 16 -14 -3
-5 0 -9 6 -9 6 0 8 -4 5 -10 -3 -5 -1 -10 4 -10 6 0 11 -7 11 -15 0 -8 6 -15
13 -15 8 0 7 -4 -3 -10 -11 -7 -12 -10 -2 -10 9 0 11 -8 8 -22 -3 -13 -3 -17
0 -10 3 6 10 12 15 12 6 0 7 -4 4 -10 -3 -5 0 -10 7 -10 9 0 9 -3 -2 -10 -12
-8 -12 -10 5 -11 13 0 15 -3 6 -6 -8 -3 -9 -8 -3 -12 6 -3 12 -13 14 -21 2 -8
9 -20 17 -26 8 -6 16 -22 18 -35 2 -13 10 -27 18 -32 9 -4 13 -13 9 -18 -3 -6
2 -17 12 -25 11 -9 13 -13 7 -9 -7 3 -13 1 -13 -4 0 -6 7 -11 16 -11 14 0 15
-2 3 -17 -8 -9 -9 -14 -3 -10 7 4 18 -1 25 -10 12 -13 12 -17 1 -21 -10 -3 -7
-8 7 -19 23 -15 29 -38 9 -28 -7 4 -5 0 5 -8 14 -11 15 -16 5 -20 -8 -4 -7 -6
5 -6 20 -1 24 -37 5 -44 -8 -3 -7 -6 4 -6 9 -1 20 -6 24 -13 4 -7 3 -8 -4 -4
-7 4 -12 3 -12 -1 0 -5 9 -14 21 -21 11 -7 19 -21 18 -30 -3 -29 1 -43 9 -38
5 3 9 -1 9 -9 0 -8 -3 -12 -7 -10 -4 2 -7 -2 -7 -10 0 -8 5 -13 11 -12 6 1 10
-6 8 -15 -1 -9 2 -19 8 -23 5 -3 10 -15 10 -26 0 -14 4 -18 13 -13 8 5 8 2 -2
-9 -10 -13 -10 -17 -1 -17 7 0 10 -8 7 -20 -3 -11 -2 -20 3 -20 4 0 5 -11 3
-24 -3 -13 0 -27 6 -30 7 -5 9 0 5 11 -5 14 -4 15 4 4 6 -8 8 -21 4 -29 -4
-11 -2 -13 9 -7 12 8 12 6 0 -8 -9 -12 -10 -17 -2 -17 7 0 9 -4 6 -10 -3 -5 2
-10 12 -11 10 0 13 -3 6 -6 -7 -2 -13 -14 -13 -24 0 -11 4 -18 9 -14 5 3 13 0
17 -6 4 -7 3 -9 -4 -5 -18 11 -25 -14 -9 -32 8 -9 13 -27 11 -40 -3 -17 0 -21
8 -16 10 6 10 4 0 -8 -10 -13 -10 -18 -1 -24 8 -5 9 -3 4 7 -8 12 -6 12 8 0 9
-7 13 -18 9 -25 -12 -19 -8 -70 8 -84 13 -12 13 -13 0 -6 -13 7 -13 5 -1 -9 7
-9 10 -17 5 -17 -4 0 1 -7 12 -15 18 -15 18 -15 0 -8 -13 4 -17 3 -12 -5 3 -6
2 -13 -4 -17 -5 -3 -10 -12 -10 -18 0 -7 4 -6 11 3 8 12 9 8 5 -16 -3 -19 1
-39 10 -52 14 -21 15 -47 0 -70 -5 -8 -3 -12 6 -10 16 4 12 -50 -5 -71 -10
-12 -8 -12 13 -1 l25 13 -19 -22 c-19 -21 -19 -21 0 -21 16 0 17 -2 4 -10 -12
-8 -12 -10 5 -10 17 0 17 -2 5 -10 -12 -8 -12 -10 -1 -10 11 0 11 -3 1 -15 -7
-9 -8 -15 -2 -15 5 0 8 -9 5 -21 -4 -12 0 -25 8 -30 11 -7 10 -9 -4 -9 -10 0
-15 -5 -12 -10 4 -6 1 -18 -6 -26 -10 -12 -9 -13 5 -8 18 7 19 -15 2 -27 -12
-9 3 -31 16 -23 7 4 8 2 4 -5 -4 -6 -13 -8 -19 -4 -7 4 -6 0 2 -10 11 -13 11
-17 1 -17 -8 0 -10 -3 -7 -7 4 -3 1 -13 -6 -21 -8 -11 -8 -14 0 -9 20 12 26
-14 7 -29 -11 -9 -14 -13 -9 -11 6 3 15 -5 22 -18 7 -15 7 -23 1 -22 -18 4
-17 -36 0 -51 9 -7 12 -11 6 -8 -7 3 -18 -2 -25 -11 -8 -9 -9 -14 -4 -11 6 4
15 -4 22 -17 7 -15 7 -23 1 -22 -6 1 -12 -8 -14 -20 -3 -16 1 -23 14 -24 14
-1 14 -2 1 -6 -10 -2 -14 -14 -13 -33 1 -20 -2 -27 -11 -24 -7 3 -16 0 -21 -7
-4 -7 -3 -10 3 -6 6 4 17 -1 24 -10 8 -10 9 -14 2 -10 -17 10 -28 -13 -12 -24
8 -5 10 -9 5 -9 -5 0 -3 -7 4 -15 11 -13 10 -14 -6 -9 -15 6 -17 4 -7 -6 8 -9
9 -19 2 -32 -5 -10 -7 -18 -4 -18 3 0 1 -10 -6 -21 -9 -17 -8 -20 3 -14 8 4 8
2 -2 -7 -16 -14 -25 -73 -10 -63 10 6 8 -14 -3 -32 -5 -8 -3 -13 3 -13 6 0 8
-5 5 -10 -4 -6 -10 -8 -14 -5 -5 2 -7 -7 -5 -20 1 -14 -2 -25 -7 -25 -4 0 -5
-7 -2 -17 5 -12 3 -14 -8 -8 -8 4 -11 5 -7 0 4 -4 3 -16 -3 -26 -7 -13 -6 -19
1 -19 6 0 4 -7 -4 -16 -20 -19 -20 -25 -2 -18 16 6 16 -19 1 -33 -4 -5 -4 -1
0 7 8 13 7 13 -8 1 -18 -14 -22 -22 -9 -20 21 4 24 -3 6 -17 -10 -8 -12 -12
-4 -8 13 7 13 5 1 -9 -7 -9 -11 -24 -7 -32 3 -9 0 -18 -8 -21 -8 -3 -12 -14
-8 -26 3 -14 1 -19 -5 -15 -7 5 -9 0 -6 -13 3 -11 10 -17 16 -13 6 4 7 1 3 -6
-5 -7 -14 -10 -20 -8 -7 3 -13 -1 -13 -9 0 -8 4 -14 9 -14 5 0 3 -6 -4 -14 -7
-8 -17 -11 -23 -8 -5 3 -4 -2 4 -12 11 -13 11 -20 3 -28 -7 -7 -12 -20 -12
-31 0 -10 -4 -15 -10 -12 -5 3 -10 2 -10 -4 0 -5 6 -12 13 -14 7 -3 4 -6 -7
-6 -15 -1 -16 -4 -7 -15 9 -10 8 -15 -4 -20 -9 -3 -15 -18 -15 -41 0 -21 -6
-38 -14 -41 -8 -3 -12 -13 -8 -26 3 -11 -1 -24 -9 -29 -8 -4 -14 -16 -14 -26
0 -10 -6 -17 -13 -15 -9 1 -10 -6 -6 -24 5 -19 4 -25 -5 -20 -6 4 -11 4 -10
-1 4 -26 -2 -44 -13 -37 -8 5 -7 0 2 -11 9 -11 10 -16 3 -11 -9 5 -13 0 -13
-13 0 -12 -7 -21 -15 -21 -8 0 -12 -6 -9 -14 3 -8 -5 -22 -18 -31 -14 -11 -16
-15 -6 -12 10 4 20 2 23 -4 4 -5 1 -8 -7 -7 -7 2 -12 -3 -10 -10 1 -7 -5 -15
-13 -18 -8 -3 -12 -10 -9 -15 3 -5 -2 -12 -10 -15 -9 -3 -16 -15 -16 -26 0
-10 -4 -17 -9 -13 -5 3 -13 0 -17 -6 -4 -8 -3 -9 4 -5 19 11 14 -15 -5 -31
-10 -8 -12 -11 -4 -7 9 5 12 3 7 -4 -4 -7 -15 -12 -24 -13 -11 0 -13 -2 -4 -6
10 -4 10 -8 0 -21 -11 -13 -11 -15 2 -8 8 4 4 -1 -10 -13 -14 -11 -25 -26 -26
-33 0 -7 -4 -23 -8 -36 -6 -17 -11 -20 -20 -12 -10 8 -12 5 -8 -15 3 -18 0
-25 -12 -25 -10 0 -13 -5 -9 -17 4 -11 3 -14 -5 -9 -7 4 -12 3 -12 -1 0 -5
-11 -20 -23 -33 -13 -14 -23 -33 -21 -43 1 -9 -2 -17 -8 -17 -6 0 -8 -7 -5
-14 4 -10 1 -13 -7 -10 -8 3 -17 1 -21 -5 -3 -6 0 -11 7 -12 7 0 2 -5 -11 -10
-15 -6 -21 -15 -17 -24 5 -14 -6 -20 -28 -16 -5 1 -3 -6 5 -15 12 -16 12 -17
-4 -11 -15 5 -16 3 -7 -12 8 -16 7 -18 -12 -13 -16 4 -20 1 -16 -9 6 -14 -16
-42 -25 -33 -3 3 -8 0 -13 -7 -4 -8 -3 -10 4 -5 7 4 12 2 12 -4 0 -6 -7 -13
-15 -16 -8 -4 -12 -10 -9 -15 3 -5 -2 -9 -11 -9 -8 0 -20 -11 -25 -25 -5 -14
-12 -25 -15 -25 -4 0 -3 5 0 10 3 6 2 10 -4 10 -5 0 -9 -12 -8 -27 1 -19 -5
-30 -20 -38 -13 -7 -20 -15 -16 -18 3 -4 -1 -7 -10 -7 -9 0 -22 -12 -29 -27
-8 -16 -21 -27 -30 -27 -10 1 -14 -4 -11 -12 3 -8 -1 -14 -11 -14 -9 0 -16 -6
-16 -13 0 -17 -44 -59 -53 -50 -4 3 -7 1 -7 -6 0 -7 -5 -9 -12 -5 -9 6 -9 3 0
-9 12 -14 11 -16 -8 -12 -18 4 -20 2 -9 -11 10 -12 9 -13 -6 -8 -10 4 -16 3
-13 -2 3 -5 -4 -18 -15 -29 -11 -11 -16 -14 -12 -6 5 9 4 12 -3 7 -7 -4 -12
-14 -12 -23 0 -9 -6 -13 -14 -10 -10 4 -13 1 -10 -8 6 -15 -29 -39 -40 -27 -4
3 -4 -1 0 -11 4 -12 1 -17 -10 -17 -9 0 -19 -7 -22 -15 -4 -8 -10 -12 -15 -9
-5 3 -9 -4 -9 -15 0 -12 -7 -21 -16 -21 -8 0 -12 -5 -9 -10 4 -7 -3 -9 -19 -6
-19 3 -23 1 -19 -11 4 -10 2 -14 -4 -10 -6 4 -13 -3 -16 -14 -3 -11 -15 -23
-26 -26 -12 -3 -21 -10 -21 -15 0 -5 -5 -6 -10 -3 -6 3 -13 -1 -16 -10 -4 -9
-13 -14 -20 -11 -8 3 -13 2 -11 -2 4 -14 -39 -47 -58 -44 -17 3 -17 1 -5 -7
13 -9 12 -11 -3 -11 -11 0 -15 -4 -11 -12 5 -8 2 -9 -9 -5 -12 4 -17 1 -18
-11 0 -10 -3 -12 -6 -4 -2 6 -9 12 -14 12 -6 0 -7 -4 -4 -10 3 -5 -1 -10 -10
-10 -10 0 -13 -5 -9 -12 5 -8 0 -9 -15 -5 -19 5 -20 3 -10 -9 7 -8 8 -14 3
-13 -23 4 -35 -2 -28 -13 6 -10 4 -10 -8 0 -13 10 -18 10 -24 1 -4 -8 -3 -9 4
-5 7 4 12 2 12 -3 0 -6 -5 -11 -11 -11 -6 0 -17 -7 -26 -15 -8 -8 -19 -13 -24
-10 -5 4 -9 -2 -9 -12 0 -14 -2 -15 -9 -4 -7 11 -11 10 -20 -7 -7 -14 -17 -19
-28 -15 -12 5 -14 3 -8 -7 6 -10 4 -12 -8 -7 -12 4 -17 1 -17 -10 0 -12 -3
-13 -15 -3 -12 10 -14 8 -10 -7 2 -12 -2 -20 -10 -20 -8 0 -12 5 -9 11 3 6 -2
2 -10 -8 -9 -11 -16 -14 -16 -7 0 7 -5 9 -10 6 -6 -4 -8 -10 -6 -14 3 -4 -5
-13 -17 -21 -20 -12 -21 -12 -8 4 12 14 12 16 -3 10 -9 -3 -16 -10 -16 -16 0
-5 -5 -6 -12 -2 -8 5 -9 2 -4 -11 5 -15 4 -16 -9 -5 -12 10 -16 9 -21 -3 -3
-9 -12 -18 -20 -21 -10 -4 -13 -1 -9 7 4 6 0 4 -8 -5 -11 -14 -16 -15 -26 -5
-10 9 -11 8 -5 -7 6 -16 4 -18 -10 -13 -11 4 -15 3 -10 -4 4 -8 -1 -9 -15 -4
-15 4 -21 3 -19 -7 2 -7 -6 -13 -16 -13 -11 0 -21 -6 -24 -13 -2 -6 -8 -12
-13 -12 -6 0 -7 5 -4 10 3 6 4 10 0 10 -3 0 -10 -10 -15 -23 -7 -17 -9 -18 -9
-4 -1 9 -6 17 -12 17 -5 0 -8 -4 -5 -9 3 -5 -1 -14 -8 -20 -11 -9 -16 -9 -22
0 -4 8 -3 9 4 5 7 -4 12 -5 12 -2 0 3 -5 8 -10 11 -6 3 -15 -6 -21 -22 -6 -16
-13 -22 -16 -15 -6 16 -24 16 -21 0 2 -7 -3 -12 -9 -10 -7 1 -13 -3 -13 -9 0
-5 -5 -7 -10 -4 -6 4 -17 2 -24 -4 -8 -7 -18 -11 -22 -10 -22 4 -35 -2 -28
-13 5 -8 2 -9 -9 -5 -10 4 -17 1 -18 -6 0 -7 -4 -3 -9 8 -8 18 -9 18 -9 -5 -1
-20 -3 -22 -11 -10 -7 11 -10 11 -10 2 0 -7 -4 -11 -9 -8 -5 3 -11 -1 -15 -9
-3 -8 -11 -15 -18 -15 -9 0 -8 3 2 10 13 8 13 10 -1 10 -9 0 -24 -10 -33 -23
-9 -12 -14 -16 -11 -9 8 16 -27 16 -44 -1 -11 -9 -13 -9 -7 1 4 6 2 12 -3 12
-10 0 -15 -12 -12 -35 0 -5 -5 -2 -11 7 -11 15 -13 15 -26 0 -7 -9 -11 -11 -7
-4 3 6 1 12 -4 12 -6 0 -11 -6 -11 -13 0 -8 -12 -12 -32 -12 -18 1 -38 -2 -45
-8 -7 -5 -17 -6 -22 -3 -5 4 -13 1 -17 -5 -5 -8 -3 -9 6 -4 9 6 11 4 6 -4 -6
-9 -13 -8 -27 5 -18 16 -19 16 -13 1 3 -10 1 -17 -5 -17 -6 0 -11 5 -11 10 0
6 -6 5 -14 -2 -8 -7 -11 -17 -8 -23 3 -5 -5 -1 -18 10 -13 11 -20 14 -15 6 6
-11 4 -13 -7 -8 -9 3 -19 3 -23 -1 -10 -10 -29 -9 -37 3 -5 6 -8 3 -8 -6 0
-23 -30 -34 -30 -11 0 13 -2 14 -9 3 -6 -9 -11 -10 -15 -2 -4 6 -13 11 -19 11
-7 0 -6 -4 3 -11 11 -7 7 -9 -18 -5 -28 4 -31 2 -21 -10 10 -13 8 -13 -15 -4
-17 6 -25 6 -21 0 4 -6 -6 -8 -24 -6 -17 2 -28 -1 -25 -5 3 -5 1 -9 -5 -9 -5
0 -11 6 -14 13 -3 9 -7 9 -20 -2 -14 -11 -17 -11 -17 0 0 11 -2 11 -10 -1 -6
-10 -10 -11 -10 -2 0 6 -5 12 -11 12 -5 0 -8 -4 -5 -8 2 -4 -5 -14 -16 -21
-18 -11 -20 -11 -15 4 5 11 3 14 -6 8 -21 -13 -47 -13 -47 0 0 6 -5 4 -11 -6
-9 -15 -13 -16 -27 -5 -10 8 -13 9 -9 1 11 -17 -42 -10 -55 8 -7 10 -8 7 -4
-11 5 -23 4 -23 -9 -7 -7 10 -16 14 -19 8 -8 -12 -30 -9 -52 9 -10 8 -15 10
-11 4 4 -7 0 -17 -8 -24 -13 -11 -14 -10 -9 3 4 12 1 14 -15 10 -12 -3 -29 1
-38 8 -9 8 -14 9 -10 3 4 -7 0 -17 -8 -24 -13 -11 -14 -10 -9 3 4 12 1 14 -15
10 -12 -3 -29 1 -38 8 -9 8 -14 9 -10 3 4 -7 0 -17 -8 -24 -13 -11 -14 -10 -9
3 4 12 1 14 -15 10 -12 -3 -29 1 -38 8 -9 8 -14 9 -10 3 4 -7 0 -17 -8 -24
-13 -11 -14 -10 -9 3 5 14 1 15 -24 8 -20 -6 -34 -5 -42 2 -10 9 -11 8 -6 -7
5 -16 4 -17 -9 -6 -8 7 -15 9 -15 4 0 -5 -5 -2 -11 6 -7 11 -12 12 -15 3 -3
-7 -12 -9 -20 -6 -7 3 -11 10 -7 17 3 6 -4 2 -17 -9 -19 -17 -22 -17 -17 -3 4
12 1 16 -14 13 -10 -2 -19 1 -19 6 0 6 -8 5 -21 -2 -13 -6 -19 -7 -15 -1 4 7
-6 9 -26 6 -25 -4 -29 -2 -18 5 9 7 10 11 3 11 -6 0 -15 -5 -18 -10 -4 -6 -11
-7 -17 -4 -8 5 -9 1 -5 -12 7 -18 7 -18 -8 0 -8 11 -15 16 -15 10 0 -5 -5 -2
-10 6 -9 13 -10 13 -10 0 0 -13 -1 -13 -10 0 -10 17 -88 21 -109 5 -12 -8 -13
-6 -9 7 4 10 1 19 -8 22 -25 10 -41 7 -24 -4 9 -6 10 -10 3 -10 -6 0 -15 5
-18 10 -5 8 -12 7 -23 -2 -9 -7 -13 -8 -9 -2 4 7 -2 14 -13 17 -11 3 -18 1
-14 -4 3 -5 0 -9 -5 -9 -6 0 -11 10 -11 22 0 21 0 21 -16 2 -8 -10 -13 -14
-10 -8 3 7 -1 15 -10 18 -8 3 -13 2 -9 -3 6 -11 -22 -8 -32 4 -4 4 -2 5 6 0
10 -5 12 -4 7 3 -5 8 -13 9 -25 3 -10 -6 -23 -6 -31 -1 -8 5 -18 6 -22 4 -4
-3 -8 2 -8 10 0 9 -5 16 -11 16 -5 0 -8 -4 -5 -8 3 -5 -1 -9 -9 -9 -8 0 -12 4
-9 9 3 4 -5 8 -18 8 -18 0 -20 2 -8 10 13 8 12 10 -2 10 -10 0 -18 -6 -18 -12
0 -9 -3 -10 -8 -2 -4 6 -19 10 -34 10 -14 -1 -24 3 -21 8 4 5 -1 7 -11 3 -9
-4 -15 -3 -12 2 3 5 -1 11 -9 15 -8 3 -15 0 -15 -7 -1 -7 -6 -5 -14 5 -9 13
-16 14 -24 6 -9 -9 -10 -5 -7 13 4 23 4 23 -10 5 -14 -18 -20 -15 -16 8 1 5
-6 3 -15 -5 -12 -9 -15 -9 -10 -1 4 7 1 12 -9 12 -9 0 -13 5 -9 11 4 8 0 8
-15 0 -17 -10 -22 -9 -27 2 -3 9 -14 13 -27 10 -18 -4 -19 -3 -7 6 12 9 10 11
-12 11 -15 0 -30 4 -33 10 -3 5 -19 10 -34 10 -30 0 -56 21 -43 36 4 4 -1 3
-10 -4 -14 -11 -20 -10 -38 8 -12 12 -24 19 -28 16 -3 -4 -12 4 -20 16 -10 17
-12 18 -7 4 5 -18 4 -19 -12 -5 -10 8 -28 14 -39 14 -13 -2 -21 3 -20 13 1 9
-8 16 -22 17 -23 2 -45 23 -37 35 2 3 -10 5 -26 4 -19 -1 -34 5 -43 17 -7 10
-16 16 -19 12 -4 -3 -7 -1 -7 7 0 10 -4 10 -17 -1 -9 -8 -14 -9 -10 -3 4 7 0
15 -9 18 -10 4 -14 12 -10 22 5 14 4 15 -8 5 -14 -12 -49 -5 -41 9 3 4 -7 11
-20 14 -14 4 -23 11 -20 16 3 6 -1 7 -9 4 -9 -3 -16 -2 -16 4 0 6 6 12 13 15
6 2 -4 4 -23 5 -19 0 -39 7 -45 15 -5 7 -16 12 -24 9 -10 -3 -12 0 -8 12 4 9
3 15 -1 12 -5 -3 -15 4 -22 15 -8 10 -25 19 -39 19 -13 0 -22 3 -18 6 9 9 -19
34 -38 34 -10 0 -13 5 -9 12 5 8 2 9 -10 5 -14 -5 -17 -3 -12 8 4 10 -1 15
-15 15 -11 0 -17 5 -14 10 6 10 -7 14 -32 11 -8 -1 -10 5 -7 14 5 11 2 14 -10
9 -12 -5 -19 0 -23 15 -3 11 -10 21 -15 21 -5 0 -6 5 -3 10 4 6 3 10 -2 9 -22
-4 -35 2 -30 15 4 11 1 13 -10 9 -10 -4 -14 -2 -10 4 5 7 0 9 -13 6 -19 -5
-25 5 -21 31 1 5 -5 6 -14 2 -10 -4 -22 4 -34 24 -10 17 -21 27 -24 23 -6 -6
-11 11 -8 29 0 4 -6 5 -13 2 -16 -6 -40 29 -28 41 4 4 0 6 -8 3 -8 -3 -25 5
-36 18 -12 12 -25 20 -28 16 -4 -3 -4 2 0 12 6 15 4 17 -6 11 -10 -6 -12 -4
-7 9 6 14 3 16 -14 11 -14 -5 -19 -3 -15 3 9 14 -23 44 -37 35 -7 -4 -6 1 2
10 12 15 12 17 -4 11 -13 -5 -16 -4 -11 4 7 11 -6 17 -28 13 -5 -1 -3 6 5 15
9 12 9 15 1 10 -6 -4 -12 -2 -12 3 0 6 -7 11 -16 11 -8 0 -13 4 -10 9 3 5 -8
23 -25 40 -17 19 -27 37 -22 44 4 7 -2 5 -12 -3 -11 -9 -16 -10 -11 -2 4 6 2
12 -3 12 -6 0 -10 3 -9 8 2 4 -5 18 -15 32 -9 13 -17 20 -17 14 0 -5 3 -14 8
-20 4 -5 -1 -1 -11 10 -14 15 -15 21 -5 27 9 6 8 9 -6 9 -13 0 -16 5 -12 17 4
10 4 15 1 11 -4 -3 -16 4 -29 16 -17 16 -20 25 -12 36 6 8 7 12 3 9 -5 -4 -19
4 -33 18 -13 13 -28 22 -32 19 -8 -5 -10 1 -14 43 -1 11 -5 18 -8 16 -3 -1
-11 3 -18 11 -10 11 -10 14 0 15 10 0 10 2 0 6 -6 2 -9 10 -5 16 4 7 -2 5 -12
-3 -11 -9 -16 -10 -11 -2 4 7 2 12 -4 12 -6 0 -8 5 -5 10 3 6 0 10 -7 10 -9 0
-9 3 2 10 13 8 12 10 -3 10 -10 0 -15 5 -12 10 3 6 2 10 -3 10 -5 0 -17 16
-26 35 -10 20 -22 33 -28 29 -6 -4 -5 3 2 16 10 19 10 22 -2 18 -9 -4 -14 2
-16 19 -3 35 -11 45 -30 38 -9 -3 -13 -3 -9 1 4 4 -1 16 -10 27 -10 11 -12 17
-5 13 6 -4 12 -3 12 2 0 5 -11 14 -24 20 -19 9 -24 17 -20 37 2 14 1 25 -3 25
-5 0 -14 9 -21 21 -10 15 -10 19 -1 14 7 -5 10 -3 7 6 -3 8 -10 13 -16 12 -6
-2 -9 6 -7 17 2 12 0 18 -6 15 -5 -4 -9 3 -9 14 0 10 -6 22 -12 24 -7 3 -5 6
6 6 18 1 18 2 -2 19 -14 12 -20 27 -17 41 4 19 2 21 -11 10 -8 -7 -14 -8 -13
-3 4 22 -2 44 -17 58 -9 10 -11 16 -4 16 7 0 5 6 -4 16 -21 21 -20 30 1 13 16
-13 17 -12 4 4 -7 9 -21 17 -30 17 -14 0 -14 2 -1 10 10 6 11 10 3 10 -7 0
-13 9 -13 20 0 11 -6 20 -12 20 -8 0 -9 3 -3 8 14 10 17 32 4 32 -6 0 -8 7 -5
16 3 8 2 13 -3 10 -4 -3 -13 6 -20 20 -6 15 -7 23 -1 19 5 -3 10 -1 10 4 0 6
-4 11 -10 11 -5 0 -10 9 -10 21 0 12 -4 17 -11 13 -8 -5 -8 -1 0 13 12 24 6
34 -17 26 -12 -4 -11 -1 3 10 16 13 17 17 5 18 -8 1 -18 1 -22 0 -4 0 -2 11 4
25 10 22 9 28 -5 39 -19 14 -23 30 -5 19 10 -6 10 -4 0 8 -7 9 -12 20 -11 24
1 5 0 12 -1 17 -1 4 -3 13 -4 20 -1 6 -7 11 -13 10 -6 -1 -9 6 -6 18 5 16 8
17 21 7 11 -9 9 -4 -3 13 -11 15 -23 25 -27 22 -8 -4 -12 14 -8 32 2 6 2 24 1
40 -1 24 1 27 10 15 9 -13 10 -13 6 0 -2 8 -11 14 -20 12 -12 -2 -15 4 -11 24
3 14 1 23 -3 21 -4 -3 -7 15 -6 39 0 24 -3 42 -7 39 -5 -3 -11 -1 -15 5 -3 5
-2 10 3 10 5 0 7 12 4 26 -4 21 -2 25 9 19 12 -8 12 -6 0 8 -7 9 -18 14 -24
10 -6 -3 -7 -1 -3 5 4 7 15 12 24 13 11 0 12 3 5 6 -7 2 -13 11 -13 18 0 7 -4
15 -9 17 -16 5 -16 105 0 124 8 10 9 15 4 12 -6 -4 -17 -3 -25 3 -12 7 -11 9
5 10 11 0 15 3 9 5 -7 3 -9 14 -6 26 4 16 2 19 -9 13 -11 -7 -11 -5 1 10 14
17 13 18 -2 12 -14 -5 -16 -2 -9 16 6 15 4 25 -8 34 -15 12 -15 13 0 7 10 -3
20 0 25 7 4 8 3 10 -4 5 -9 -5 -12 7 -12 41 0 27 -5 54 -12 61 -9 9 -7 13 6
18 15 6 15 7 -1 20 -15 12 -15 13 -2 8 10 -3 20 0 25 7 4 8 3 10 -4 5 -8 -5
-12 4 -12 28 0 22 -5 36 -12 37 -7 0 -5 4 6 8 17 7 17 8 2 24 -14 14 -15 17
-3 17 19 0 30 29 14 36 -10 3 -12 18 -7 54 5 41 4 50 -9 51 -12 0 -11 3 4 9
11 5 15 9 8 9 -13 1 -5 41 8 41 5 0 9 5 9 11 0 5 -6 7 -12 4 -7 -3 -3 2 9 11
l23 16 -21 29 c-17 24 -18 28 -3 22 14 -5 15 -3 5 15 -15 27 -14 32 5 32 14 0
14 1 0 16 -20 19 -21 28 -3 21 8 -3 14 1 14 9 0 7 -5 10 -11 7 -7 -5 -7 -2 0
8 16 19 22 88 9 93 -5 2 -1 5 10 5 17 1 17 3 5 11 -10 6 -11 10 -2 10 8 0 12
16 12 46 0 33 3 43 13 38 10 -6 10 -4 0 7 -17 17 -17 32 -1 23 8 -5 7 0 -2 11
-10 12 -10 16 -2 11 9 -6 12 1 10 26 -2 41 9 61 31 54 10 -4 8 1 -6 13 -19 16
-20 20 -7 25 10 4 13 2 8 -6 -4 -7 -3 -8 4 -4 6 4 9 13 6 21 -4 8 -11 12 -18
8 -6 -4 -5 1 3 10 7 9 18 14 25 10 8 -5 8 -3 -1 8 -9 11 -8 18 3 33 7 10 11
23 8 28 -3 4 2 15 11 24 11 11 13 20 6 27 -13 13 -2 37 18 37 14 0 14 2 1 11
-11 8 -12 12 -2 16 6 2 10 9 6 14 -3 5 0 9 7 9 10 0 10 3 1 12 -7 7 -12 17
-12 22 0 6 5 4 10 -4 7 -11 10 -8 10 16 0 17 9 41 20 54 25 28 26 37 3 19 -10
-7 -5 2 12 20 22 24 25 30 11 25 -18 -7 -17 -5 2 14 12 12 19 28 16 37 -4 9 2
25 12 37 11 12 13 18 6 14 -19 -11 -14 1 13 30 14 15 25 32 24 38 0 6 -3 6 -6
-1 -2 -7 -9 -13 -13 -13 -5 0 -2 13 8 29 9 16 20 27 24 25 3 -2 9 0 13 6 3 5
2 10 -4 10 -6 0 -8 7 -5 15 4 8 10 15 16 15 5 0 6 -5 2 -12 -4 -6 -3 -8 2 -5
5 3 11 20 12 39 2 18 7 37 13 43 7 7 8 4 4 -10 -5 -15 -4 -16 3 -6 5 7 7 22 4
34 -4 15 -2 18 8 12 10 -6 12 -4 7 9 -6 14 -3 17 8 12 12 -4 13 -2 6 13 -8 14
-6 22 8 35 10 9 22 13 26 9 5 -5 4 -1 -3 8 -10 14 -9 18 5 23 14 6 15 9 4 15
-10 7 -8 11 9 16 16 5 19 10 11 18 -6 6 -11 16 -11 22 0 5 5 3 10 -5 8 -13 11
-13 22 -1 10 10 10 12 1 7 -18 -10 -16 2 2 21 8 8 13 19 9 24 -3 5 0 8 8 7 7
-2 12 3 11 10 -2 6 4 12 12 12 8 0 12 6 9 13 -3 8 5 18 18 25 13 6 17 11 11
11 -7 1 -13 6 -13 12 0 5 5 7 10 4 6 -3 10 3 10 14 0 12 5 21 11 21 6 0 8 7 5
16 -5 13 -3 14 7 6 10 -8 13 -6 14 11 1 12 10 27 19 34 10 7 14 13 8 14 -5 0
1 4 14 9 12 5 22 16 22 25 0 8 5 15 11 15 6 0 9 7 6 15 -8 20 13 31 25 14 8
-11 9 -10 4 4 -3 11 0 20 9 24 12 4 13 9 4 19 -8 10 -6 12 11 9 19 -4 20 -2 8
12 -8 10 -8 14 -1 10 6 -4 14 -3 18 3 3 5 0 10 -7 10 -8 0 -6 5 5 11 9 5 21 7
27 4 5 -3 7 4 5 16 -4 17 -2 19 11 8 12 -9 13 -9 9 2 -3 8 11 31 31 52 25 26
31 36 18 32 -11 -3 -7 1 9 8 15 7 24 16 21 20 -7 7 11 11 30 8 5 -1 6 5 3 14
-6 13 4 20 26 16 4 -1 3 8 -3 19 -9 16 -8 20 5 20 9 0 13 5 10 10 -3 6 1 10 9
10 15 0 21 12 17 34 -1 5 5 6 13 3 14 -6 46 21 46 40 0 13 35 44 53 47 21 3
48 27 42 36 -3 5 0 12 6 16 8 4 9 3 5 -4 -11 -18 2 -14 23 7 13 13 16 22 9 29
-8 8 -4 9 12 5 16 -4 21 -3 16 5 -5 8 0 12 13 12 11 0 23 4 26 10 4 6 -1 7
-11 3 -12 -4 -15 -3 -10 5 4 7 14 12 22 12 8 0 12 5 9 10 -3 6 3 10 14 10 13
0 21 7 21 18 0 14 2 15 10 2 5 -8 10 -12 10 -7 0 4 -1 9 -2 11 -6 8 35 45 43
40 5 -3 9 0 9 5 0 6 3 10 8 10 4 -1 14 -1 22 1 11 1 9 4 -5 11 -17 7 -15 8 10
6 20 -1 29 3 27 11 -1 7 5 15 13 18 8 3 13 10 10 14 -3 4 9 10 26 14 17 3 28
10 24 16 -3 5 1 10 9 10 9 0 16 5 16 11 0 5 -5 7 -12 3 -7 -4 -8 -3 -4 5 5 8
12 9 20 2 14 -12 28 -4 44 29 7 14 10 17 8 8 -3 -10 -1 -18 4 -18 6 0 10 7 10
15 0 8 7 15 15 15 8 0 15 5 15 11 0 5 4 8 9 5 5 -3 11 1 15 9 3 8 10 15 16 15
6 0 8 -5 4 -12 -5 -7 -3 -8 5 -4 7 5 10 14 7 22 -4 12 -2 12 14 4 17 -9 19 -8
13 7 -6 16 -5 17 13 3 10 -8 16 -11 12 -6 -13 16 12 46 38 46 14 0 23 3 20 8
-2 4 7 12 20 19 13 6 22 7 18 2 -3 -5 2 -6 10 -3 8 3 12 12 10 19 -4 9 2 13
21 11 17 -2 29 3 36 15 5 10 13 18 17 18 21 -3 32 2 26 13 -5 8 -2 9 11 5 24
-10 52 12 33 26 -10 7 -9 8 3 4 9 -3 26 1 38 9 11 8 21 12 21 7 0 -4 4 -2 9 5
4 7 18 14 29 15 12 1 22 4 22 7 0 4 10 6 23 5 12 -1 27 2 34 7 7 5 17 7 22 3
7 -4 8 1 4 11 -4 12 -3 15 5 10 7 -4 12 -2 12 4 0 6 4 9 9 5 5 -3 13 -1 16 5
5 8 12 7 23 -2 13 -11 15 -10 9 5 -4 10 -3 16 2 13 4 -3 16 3 26 14 14 15 21
17 32 9 10 -9 13 -8 13 0 0 7 5 9 10 6 6 -3 10 -1 10 4 0 6 5 11 11 11 5 0 7
-6 4 -12 -4 -7 1 -4 9 6 12 15 16 16 16 5 0 -9 3 -10 8 -3 4 6 15 10 25 8 10
-1 14 2 10 9 -4 7 0 8 12 3 16 -6 16 -4 4 10 -13 16 -12 16 8 5 19 -9 22 -9
17 2 -3 10 2 14 18 13 13 -1 29 3 37 8 11 8 13 8 7 -1 -4 -7 -3 -13 2 -13 6 0
13 7 16 16 5 14 9 14 23 3 12 -10 14 -10 9 -1 -4 7 -1 12 9 12 9 0 24 8 33 18
10 10 14 13 9 6 -4 -7 -1 -14 8 -18 10 -3 13 -2 10 4 -4 7 3 9 19 6 18 -3 23
-1 19 10 -5 15 8 18 61 14 15 -1 26 2 23 7 -4 6 0 10 8 10 8 0 15 -5 15 -11 0
-6 4 -4 9 4 6 8 7 19 5 25 -3 5 1 2 8 -7 16 -18 48 -19 63 -2 6 7 23 14 38 17
21 3 27 1 23 -10 -3 -8 -1 -11 4 -8 6 3 10 14 11 23 0 14 2 13 9 -3 5 -11 9
-14 9 -7 1 6 6 12 12 12 5 0 7 -5 3 -11 -4 -8 0 -8 15 0 11 7 21 15 21 19 0
15 40 7 41 -8 0 -9 4 -6 9 8 5 12 15 22 22 21 10 0 10 -2 1 -6 -24 -9 -13 -18
22 -18 27 0 34 3 30 15 -5 12 -4 13 6 3 15 -15 33 -17 25 -4 -3 5 5 11 19 13
14 3 25 0 26 -6 0 -6 4 -2 9 9 6 14 9 15 9 5 1 -12 10 -15 36 -12 20 2 42 -1
50 -8 13 -11 14 -10 10 2 -4 11 2 13 31 10 29 -4 35 -2 28 9 -6 11 -3 10 11
-1 13 -10 16 -11 11 -2 -6 11 2 13 38 9 31 -2 47 0 50 10 6 16 17 18 14 2z
m-2168 -204 c-7 -8 -17 -15 -23 -15 -6 0 -2 7 9 15 25 19 30 19 14 0z m810
-89 c0 -2 -6 -9 -14 -15 -11 -9 -16 -9 -22 0 -4 7 -3 9 4 5 6 -3 13 -2 17 4 6
10 15 14 15 6z m-1070 -90 c0 -2 -8 -10 -17 -17 -16 -13 -17 -12 -4 4 13 16
21 21 21 13z m5580 -556 c6 -11 8 -20 6 -20 -3 0 -10 9 -16 20 -6 11 -8 20 -6
20 3 0 10 -9 16 -20z m-5578 -62 c-7 -7 -12 -8 -12 -2 0 14 12 26 19 19 2 -3
-1 -11 -7 -17z m-87 -78 c-3 -5 -12 -10 -18 -10 -7 0 -6 4 3 10 19 12 23 12
15 0z m-200 -220 c-3 -5 -12 -10 -18 -10 -7 0 -6 4 3 10 19 12 23 12 15 0z
m-870 -480 c-3 -5 -11 -10 -16 -10 -6 0 -7 5 -4 10 3 6 11 10 16 10 6 0 7 -4
4 -10z m-235 -554 c0 -3 -4 -8 -10 -11 -5 -3 -10 -1 -10 4 0 6 5 11 10 11 6 0
10 -2 10 -4z m390 -320 c0 -2 -8 -10 -17 -17 -16 -13 -17 -12 -4 4 13 16 21
21 21 13z m7027 -152 c-3 -3 -12 -4 -19 -1 -8 3 -5 6 6 6 11 1 17 -2 13 -5z
m497 -109 c3 -8 1 -15 -4 -15 -6 0 -10 7 -10 15 0 8 2 15 4 15 2 0 6 -7 10
-15z m-439 -234 c3 -5 0 -13 -6 -17 -7 -4 -9 -3 -5 4 3 5 0 13 -6 15 -9 4 -10
6 -1 6 6 1 14 -3 18 -8z m482 -213 c-3 -8 -6 -5 -6 6 -1 11 2 17 5 13 3 -3 4
-12 1 -19z m-7690 -144 c-3 -3 -12 -4 -19 -1 -8 3 -5 6 6 6 11 1 17 -2 13 -5z
m7690 -496 c-3 -8 -6 -5 -6 6 -1 11 2 17 5 13 3 -3 4 -12 1 -19z m-7557 -618
c0 -5 -2 -10 -4 -10 -3 0 -8 5 -11 10 -3 6 -1 10 4 10 6 0 11 -4 11 -10z
m6720 -654 c0 -3 -4 -8 -10 -11 -5 -3 -10 -1 -10 4 0 6 5 11 10 11 6 0 10 -2
10 -4z m-93 -161 c0 -8 -4 -12 -9 -9 -5 3 -6 10 -3 15 9 13 12 11 12 -6z
m-104 -165 c-10 -11 -19 -20 -21 -20 -1 0 2 9 8 20 6 11 15 20 20 20 6 0 2 -9
-7 -20z m399 -292 c-7 -7 -12 -8 -12 -2 0 14 12 26 19 19 2 -3 -1 -11 -7 -17z
m-402 -508 c0 -5 -5 -10 -11 -10 -5 0 -7 5 -4 10 3 6 8 10 11 10 2 0 4 -4 4
-10z m-5240 -710 c0 -5 -2 -10 -4 -10 -3 0 -8 5 -11 10 -3 6 -1 10 4 10 6 0
11 -4 11 -10z m4157 -136 c-3 -3 -12 -4 -19 -1 -8 3 -5 6 6 6 11 1 17 -2 13
-5z m-2722 -434 c3 -6 -1 -7 -9 -4 -18 7 -21 14 -7 14 6 0 13 -4 16 -10z"/>
<path d="M4303 7908 c3 -10 2 -20 -3 -23 -6 -4 -10 -1 -10 4 0 6 -5 11 -11 11
-5 0 -7 -6 -3 -12 6 -10 4 -10 -7 0 -15 13 -43 17 -35 4 3 -5 -2 -9 -10 -9 -8
0 -13 6 -10 14 4 10 1 10 -14 1 -10 -7 -17 -16 -14 -20 3 -4 -2 -5 -11 -1 -10
3 -21 0 -26 -8 -5 -8 -9 -9 -9 -3 0 7 -9 14 -21 17 -15 4 -17 2 -10 -6 7 -9 0
-12 -24 -12 -18 0 -31 3 -28 8 2 4 0 7 -6 7 -5 0 -13 -5 -16 -10 -5 -8 -11 -8
-19 -1 -9 8 -71 9 -71 1 0 -3 -37 -10 -74 -15 -18 -2 -36 -6 -39 -9 -2 -3 -13
-1 -23 5 -13 6 -19 6 -19 -1 0 -5 5 -10 11 -10 5 0 7 -5 4 -10 -5 -8 -11 -8
-20 0 -10 8 -14 8 -17 -1 -3 -8 -9 -9 -18 -4 -15 10 -53 15 -45 7 3 -3 -7 -11
-22 -19 -19 -10 -28 -11 -34 -2 -5 8 -8 7 -12 -2 -3 -9 -6 -7 -6 5 -1 20 -1
20 -17 0 -8 -10 -13 -14 -10 -7 7 13 -31 6 -40 -9 -3 -5 -13 -3 -22 4 -14 12
-14 10 -2 -12 12 -22 12 -24 -2 -12 -12 10 -17 10 -20 1 -2 -7 -12 -13 -22
-15 -12 -2 -16 2 -12 13 5 13 4 14 -9 3 -8 -7 -15 -9 -15 -5 0 4 -6 2 -13 -4
-8 -6 -18 -7 -22 -3 -5 4 -5 1 0 -6 5 -10 0 -13 -21 -10 -22 2 -28 -1 -26 -12
3 -12 1 -12 -9 -3 -10 10 -15 9 -26 -5 -10 -12 -12 -12 -8 -2 4 8 -1 6 -9 -4
-16 -20 -16 -20 -16 0 -1 18 -1 18 -14 2 -7 -10 -16 -15 -19 -11 -4 3 -7 1 -7
-5 0 -7 -5 -12 -11 -12 -5 0 -7 5 -4 11 4 6 -2 5 -13 -2 -12 -7 -18 -17 -16
-21 3 -4 0 -8 -5 -8 -6 0 -11 4 -11 9 0 14 -25 7 -44 -12 -19 -19 -31 -23 -21
-7 9 15 -9 12 -31 -5 -19 -15 -19 -15 1 -9 16 5 17 4 5 -5 -9 -6 -18 -7 -24
-1 -14 14 -23 12 -30 -6 -6 -15 -4 -15 11 -3 16 12 17 12 5 -2 -7 -10 -25 -15
-47 -14 -31 1 -39 -4 -37 -25 0 -3 -8 -6 -18 -6 -10 0 -16 5 -12 11 3 5 -2 4
-12 -4 -9 -8 -14 -21 -11 -30 4 -12 2 -12 -9 2 -13 16 -14 16 -19 -4 -5 -20
-8 -21 -23 -8 -16 12 -17 12 -11 -3 3 -10 2 -18 -3 -18 -6 0 -10 6 -10 13 0 8
-3 7 -10 -3 -5 -8 -12 -11 -16 -7 -4 4 -12 -3 -18 -15 -11 -21 -46 -34 -46
-17 0 6 -10 1 -22 -11 -12 -11 -27 -20 -32 -20 -6 0 -17 -9 -24 -21 -11 -16
-16 -18 -27 -9 -12 10 -16 9 -21 -4 -4 -10 -13 -15 -21 -12 -8 4 -17 -3 -23
-17 -5 -12 -9 -17 -9 -11 -1 6 -8 11 -16 11 -12 0 -12 -3 -2 -16 9 -12 9 -13
-1 -7 -7 4 -15 1 -18 -8 -3 -9 -10 -16 -16 -16 -5 0 -6 6 -3 13 4 6 -5 -1 -18
-17 -14 -16 -27 -24 -31 -18 -3 6 -1 13 4 15 7 4 6 5 0 4 -7 -2 -12 -7 -12
-12 0 -18 -21 -36 -35 -31 -8 3 -12 2 -9 -3 7 -11 -22 -36 -31 -27 -3 3 -1 6
5 6 7 0 12 5 12 12 0 6 -9 3 -20 -7 -16 -14 -18 -21 -8 -27 8 -6 4 -7 -11 -3
-18 6 -23 4 -19 -7 4 -10 -1 -14 -16 -14 -14 1 -21 -5 -20 -16 1 -11 -4 -14
-14 -11 -11 5 -13 3 -7 -8 8 -12 6 -12 -8 -1 -14 12 -16 11 -12 -8 3 -18 2
-20 -10 -10 -12 10 -15 10 -15 -2 0 -7 -9 -21 -20 -31 -24 -20 -34 -22 -25 -4
4 6 1 5 -7 -4 -7 -8 -21 -18 -30 -22 -10 -3 -18 -14 -18 -22 0 -9 -4 -13 -10
-10 -5 3 -10 1 -10 -5 0 -6 -4 -9 -9 -6 -5 4 -7 -4 -4 -16 4 -19 3 -20 -6 -8
-8 12 -11 12 -11 1 0 -11 -3 -11 -15 -1 -13 11 -14 10 -10 -2 5 -13 -18 -43
-34 -43 -3 0 -5 -6 -5 -12 1 -7 -2 -11 -6 -8 -4 2 -20 -7 -36 -20 -16 -14 -33
-25 -38 -25 -5 0 -6 -3 -3 -6 4 -4 15 -1 24 7 16 13 17 12 4 -3 -7 -10 -20
-18 -27 -18 -8 0 -14 -9 -14 -20 0 -18 -3 -19 -21 -10 -19 11 -20 10 -10 -9
10 -18 9 -20 -6 -14 -12 5 -15 2 -10 -10 4 -12 2 -14 -10 -10 -8 3 -19 0 -24
-8 -12 -20 -11 -31 3 -23 7 4 8 3 4 -5 -6 -9 -11 -9 -22 0 -11 9 -14 7 -14
-11 0 -15 -4 -20 -15 -17 -8 4 -17 1 -21 -5 -5 -7 -2 -8 6 -3 9 6 11 4 6 -4
-5 -7 -14 -10 -20 -8 -8 3 -12 -4 -12 -17 1 -15 -4 -20 -18 -18 -11 2 -15 -1
-11 -7 3 -6 1 -11 -4 -11 -6 0 -11 -8 -11 -17 0 -15 -2 -16 -10 -3 -8 13 -10
13 -10 -1 0 -9 -9 -19 -20 -22 -11 -3 -20 -13 -20 -22 0 -10 5 -13 12 -9 7 5
8 3 4 -5 -5 -7 -14 -10 -21 -7 -9 3 -12 -2 -10 -15 3 -14 0 -19 -9 -16 -8 3
-16 -3 -19 -15 -3 -11 -10 -17 -15 -14 -5 3 -9 -2 -8 -12 0 -9 -5 -16 -12 -14
-8 1 -11 -2 -7 -8 3 -5 3 -10 -2 -10 -4 0 -14 -14 -22 -31 -8 -18 -19 -28 -26
-25 -9 3 -12 -2 -10 -13 4 -22 -22 -64 -35 -56 -5 3 -11 -4 -15 -15 -3 -11
-11 -20 -17 -20 -7 0 -7 -4 0 -13 8 -9 8 -17 0 -27 -8 -12 -9 -12 -4 3 7 22
-7 22 -25 0 -12 -14 -12 -16 1 -9 8 4 4 -2 -10 -14 -14 -12 -19 -19 -12 -15 6
3 12 1 12 -4 0 -6 -8 -11 -17 -12 -11 0 -13 -3 -6 -6 19 -7 -4 -46 -23 -39 -9
3 -12 1 -9 -4 3 -6 0 -10 -7 -10 -9 0 -9 -3 2 -10 13 -9 7 -14 -12 -11 -4 0
-5 -5 -2 -13 6 -15 -21 -40 -35 -32 -5 3 -7 -3 -4 -14 3 -11 0 -27 -7 -35 -6
-8 -9 -19 -5 -25 4 -6 3 -10 -2 -9 -20 3 -27 -2 -13 -11 13 -8 12 -10 -3 -10
-10 0 -15 -4 -12 -10 3 -5 1 -10 -6 -10 -9 0 -9 -3 0 -14 10 -12 8 -14 -11
-10 -13 2 -17 2 -10 -2 13 -6 17 -25 5 -23 -22 4 -25 -3 -7 -15 19 -14 19 -14
-1 -13 -11 1 -19 -3 -18 -10 2 -7 -2 -13 -8 -13 -5 0 -7 -4 -4 -10 3 -5 1 -10
-5 -10 -6 0 -8 -4 -5 -10 3 -5 2 -10 -4 -10 -6 0 -13 -11 -17 -25 -3 -14 -11
-25 -18 -25 -6 0 -4 -5 4 -10 10 -6 11 -10 3 -10 -7 0 -13 -7 -13 -15 0 -9 -7
-18 -15 -21 -8 -4 -15 -10 -15 -16 0 -5 4 -7 9 -3 5 3 13 0 17 -6 4 -8 3 -9
-4 -5 -11 6 -17 -6 -13 -27 1 -4 -6 -10 -14 -13 -8 -3 -12 -10 -9 -15 3 -5 0
-9 -7 -9 -8 0 -8 -4 1 -15 11 -13 10 -14 -4 -9 -12 5 -15 2 -10 -10 4 -11 -3
-27 -17 -44 -13 -14 -17 -21 -7 -14 12 10 18 10 24 1 4 -7 3 -10 -2 -7 -5 3
-15 0 -22 -8 -8 -9 -9 -14 -2 -14 6 0 8 -5 5 -10 -4 -6 -10 -8 -15 -5 -5 3 -7
-4 -5 -16 3 -16 0 -20 -13 -15 -16 6 -16 5 1 -8 21 -16 22 -26 2 -26 -9 0 -12
-6 -8 -17 4 -11 3 -14 -5 -9 -7 4 -12 2 -12 -3 0 -6 4 -11 10 -11 5 0 7 -7 4
-15 -4 -8 -10 -13 -14 -10 -4 3 -10 -4 -13 -15 -3 -13 -1 -18 6 -13 7 3 2 -5
-11 -19 -12 -13 -19 -27 -16 -31 12 -11 13 -57 2 -64 -7 -4 -8 -1 -3 7 5 8 4
11 -2 7 -6 -4 -9 -18 -8 -32 2 -14 -1 -27 -6 -31 -5 -3 -7 -10 -4 -15 4 -5 -2
-6 -12 -2 -16 6 -16 5 -4 -10 9 -11 10 -17 2 -17 -6 0 -11 -5 -11 -11 0 -5 4
-8 9 -5 4 3 6 -6 3 -19 -2 -14 -9 -22 -14 -19 -6 4 -5 -4 2 -16 7 -12 8 -20 2
-16 -5 3 -13 -1 -16 -10 -4 -10 -2 -13 7 -8 7 5 6 1 -2 -10 -12 -14 -12 -19
-2 -25 10 -7 10 -13 -1 -32 -7 -13 -20 -29 -28 -36 -12 -10 -13 -12 -1 -13 8
0 11 -3 8 -6 -3 -4 -2 -15 3 -25 8 -14 6 -21 -10 -29 -11 -6 -20 -18 -20 -26
0 -9 5 -12 13 -8 8 5 8 2 -2 -9 -7 -9 -10 -17 -5 -17 5 0 2 -5 -6 -10 -10 -6
-11 -10 -2 -10 6 0 12 -7 12 -16 0 -9 -5 -12 -12 -8 -7 5 -8 3 -3 -6 13 -22
12 -62 -2 -67 -7 -3 -13 -9 -13 -15 0 -5 6 -6 13 -2 8 5 8 2 -2 -9 -11 -14
-11 -17 0 -17 10 0 11 -2 2 -8 -13 -8 -12 -29 1 -51 6 -9 5 -12 -1 -8 -13 8
-14 -44 -1 -60 6 -7 5 -14 -2 -18 -5 -3 -10 -11 -10 -16 0 -6 5 -7 11 -3 8 5
8 1 0 -13 -7 -14 -7 -24 2 -33 10 -10 9 -12 -4 -7 -13 4 -15 1 -12 -14 3 -11
10 -16 17 -12 6 4 5 -1 -3 -10 -11 -14 -11 -20 0 -34 10 -11 10 -14 2 -9 -8 4
-13 1 -13 -8 0 -9 6 -16 13 -16 8 0 7 -4 -3 -10 -12 -8 -13 -13 -3 -29 9 -15
10 -22 1 -27 -7 -5 -8 -3 -3 6 6 9 4 11 -5 5 -10 -6 -9 -11 5 -22 11 -7 14
-13 8 -13 -13 0 -12 -18 1 -39 6 -10 5 -12 -2 -7 -7 4 -12 1 -12 -8 0 -8 6
-17 13 -19 9 -4 9 -6 0 -6 -7 -1 -13 -7 -13 -15 0 -8 6 -17 13 -19 10 -4 10
-6 0 -6 -7 -1 -13 -8 -13 -16 0 -8 6 -15 13 -15 7 0 8 -3 2 -8 -14 -10 -17
-32 -6 -46 13 -16 17 -49 8 -63 -5 -8 -3 -11 5 -8 9 4 14 -2 14 -15 0 -11 -4
-20 -8 -20 -4 0 -8 -7 -8 -16 0 -8 4 -12 10 -9 7 4 7 -3 0 -20 -13 -34 -13
-58 0 -50 6 3 10 1 10 -4 0 -22 2 -26 18 -45 9 -11 12 -16 5 -13 -6 4 -14 3
-18 -3 -3 -5 -1 -10 5 -10 6 0 8 -5 5 -10 -4 -6 -12 -7 -18 -3 -7 4 -6 0 2
-10 7 -9 10 -17 6 -17 -4 0 -1 -10 7 -22 9 -13 15 -40 14 -60 -1 -23 4 -40 12
-43 8 -3 12 -16 10 -32 -2 -17 2 -27 9 -26 12 3 12 -15 0 -34 -5 -8 -3 -11 5
-8 9 4 14 -2 14 -14 0 -11 -4 -18 -8 -15 -4 2 -6 -4 -5 -15 1 -14 5 -17 13
-10 8 7 11 1 9 -21 -2 -22 2 -30 14 -30 14 0 14 -2 1 -10 -8 -5 -10 -10 -5
-10 6 0 12 -12 13 -27 1 -15 8 -30 15 -35 8 -5 9 -8 0 -8 -13 0 -12 -25 2 -37
4 -4 5 -1 0 7 -7 13 -6 13 6 1 11 -11 11 -14 1 -18 -10 -4 -9 -8 3 -17 9 -6
17 -18 18 -26 2 -8 6 -21 10 -27 10 -17 -5 -17 -23 0 -8 6 -4 0 9 -16 14 -15
20 -27 15 -27 -5 -1 1 -9 14 -20 17 -14 22 -25 17 -40 -4 -13 -1 -22 9 -26 8
-3 17 -13 20 -21 6 -14 4 -14 -10 -2 -16 13 -16 12 -4 -8 8 -12 18 -20 22 -17
4 3 5 -8 2 -25 -5 -23 -1 -35 20 -56 14 -14 26 -32 26 -40 0 -8 5 -15 10 -15
6 0 10 -9 10 -19 0 -11 4 -21 10 -23 5 -1 10 -17 12 -35 2 -25 5 -30 15 -21
10 8 12 7 7 -6 -3 -9 -1 -16 6 -16 6 0 8 -5 5 -10 -3 -6 1 -13 10 -16 13 -5
14 -9 4 -15 -10 -6 -10 -11 0 -23 7 -9 18 -13 25 -9 6 4 4 -2 -4 -12 -9 -11
-10 -16 -2 -11 8 5 12 0 12 -17 0 -14 7 -30 15 -37 8 -7 13 -16 10 -20 -3 -4
2 -10 10 -13 10 -4 12 -1 8 11 -3 9 -3 14 1 10 7 -6 14 -30 15 -57 1 -7 7 -11
15 -8 10 4 12 0 9 -14 -3 -12 0 -19 8 -19 11 0 11 -2 -1 -10 -11 -7 -11 -10
-2 -10 7 0 23 -10 35 -21 12 -12 16 -19 10 -15 -7 4 -13 2 -13 -3 0 -6 4 -11
9 -11 5 0 24 -19 42 -43 18 -23 24 -34 13 -24 -11 9 -24 17 -28 17 -5 0 6 -12
23 -27 17 -15 31 -35 31 -45 0 -15 30 -41 41 -35 2 1 -2 -3 -9 -10 -11 -9 -10
-12 7 -18 11 -3 20 -12 18 -18 -1 -7 6 -11 17 -9 10 2 16 -1 13 -5 -8 -12 3
-25 36 -46 15 -10 27 -26 27 -37 0 -11 5 -20 10 -20 6 0 10 -6 10 -14 0 -8 9
-18 20 -21 11 -3 20 -13 20 -21 0 -8 5 -14 11 -14 5 0 7 -4 4 -10 -3 -5 3 -10
15 -10 12 0 18 -5 15 -10 -3 -5 1 -10 10 -10 12 0 15 -5 11 -17 -4 -10 -4 -14
0 -11 3 4 13 0 21 -8 8 -8 20 -11 26 -7 9 5 9 3 0 -8 -9 -11 -8 -18 1 -31 7
-10 16 -15 19 -11 4 3 7 -1 7 -11 0 -9 4 -14 10 -11 5 3 10 -3 10 -15 0 -12 4
-18 10 -15 5 3 10 1 10 -4 0 -6 8 -11 18 -11 9 0 26 -13 36 -29 12 -18 25 -27
35 -23 9 3 12 1 7 -6 -4 -7 -3 -12 3 -12 5 0 13 -9 16 -20 3 -11 14 -20 24
-20 10 0 24 -7 31 -15 9 -11 9 -15 1 -15 -7 0 -10 -4 -6 -9 3 -6 15 -8 26 -6
11 2 22 -2 25 -10 3 -8 14 -17 25 -20 10 -4 19 -13 19 -21 0 -13 13 -19 34
-15 5 1 3 -5 -4 -14 -7 -8 -10 -18 -6 -22 3 -3 6 0 6 7 0 9 7 7 22 -6 15 -12
19 -14 13 -4 -6 10 -4 9 6 -2 9 -9 20 -14 24 -10 5 4 5 -1 1 -12 -5 -14 -2
-17 9 -12 9 3 15 0 15 -9 0 -9 9 -15 23 -15 18 0 19 -2 7 -10 -11 -7 -6 -10
20 -11 29 0 31 -2 15 -9 -19 -8 -19 -9 3 -9 12 -1 22 -5 22 -11 0 -5 9 -10 21
-10 11 0 17 -4 14 -10 -3 -5 3 -10 15 -10 12 0 18 -5 15 -10 -3 -6 1 -10 10
-10 9 0 13 -4 10 -10 -3 -5 0 -7 8 -4 8 3 17 -2 20 -10 4 -9 14 -16 24 -16 10
0 31 -14 46 -32 21 -24 27 -27 23 -13 -5 15 1 13 20 -10 15 -17 24 -22 20 -12
-5 15 -2 16 14 7 10 -5 22 -16 26 -23 6 -9 4 -9 -7 -2 -8 6 -7 2 4 -7 10 -9
25 -14 34 -11 10 4 14 2 10 -4 -4 -7 0 -9 11 -7 9 3 26 -3 37 -14 12 -10 28
-18 38 -16 9 1 17 -4 17 -12 0 -8 10 -14 26 -14 14 0 23 -4 20 -9 -3 -5 1 -12
10 -15 8 -3 12 -2 9 4 -3 5 1 7 9 4 9 -3 12 -13 9 -22 -5 -14 -3 -15 8 -5 17
16 33 17 23 1 -5 -7 -2 -9 9 -5 11 4 14 2 11 -7 -4 -9 3 -13 20 -11 14 2 24
-1 23 -7 -1 -6 4 -13 12 -16 9 -3 11 0 6 8 -5 9 -4 11 3 6 7 -4 12 -14 12 -22
0 -8 4 -13 9 -9 5 3 12 1 16 -5 4 -6 11 -8 16 -4 5 3 17 0 26 -8 14 -11 16
-11 8 2 -8 13 -7 13 8 1 9 -7 17 -10 17 -6 0 5 8 0 19 -9 10 -9 22 -16 27 -15
24 4 55 -2 49 -10 -3 -5 9 -11 27 -13 19 -2 32 -8 31 -15 -2 -7 4 -10 12 -7 9
4 23 0 32 -7 15 -12 16 -12 10 3 -4 12 -2 15 8 11 8 -3 12 -9 9 -14 -3 -5 10
-9 28 -9 22 0 29 -3 19 -9 -9 -6 -2 -10 23 -13 27 -3 36 0 37 12 0 9 4 5 10
-9 8 -20 11 -22 26 -10 12 10 14 10 9 2 -5 -9 1 -13 19 -13 15 0 24 -4 20 -10
-4 -6 -3 -10 2 -9 31 5 103 -3 98 -11 -9 -14 9 -12 24 2 7 7 12 9 11 3 -4 -21
1 -23 30 -15 22 6 34 5 45 -6 9 -9 36 -16 67 -16 34 -1 58 -7 66 -17 12 -14
13 -14 8 1 -5 15 -2 15 29 -2 31 -17 33 -17 27 -2 -5 15 -3 15 22 -2 16 -10
25 -13 22 -7 -5 7 2 11 18 11 13 0 26 -5 28 -10 3 -11 75 -21 95 -13 7 3 10
10 6 16 -3 6 -1 7 5 3 6 -4 9 -13 5 -21 -4 -11 -1 -13 11 -9 9 3 13 11 10 16
-4 6 3 5 15 -2 12 -6 18 -16 15 -22 -4 -7 -3 -8 5 -4 6 4 9 11 6 15 -2 5 6 9
20 9 15 0 22 -5 18 -12 -4 -7 -2 -7 7 1 7 6 20 9 29 5 14 -5 14 -4 1 13 -15
18 -14 18 12 1 24 -16 27 -16 36 -1 8 16 9 16 15 0 4 -9 11 -13 17 -10 5 3 10
0 10 -7 1 -7 7 -2 14 11 11 20 14 21 19 7 5 -11 3 -15 -5 -10 -7 5 -8 3 -3 -5
5 -9 11 -9 17 -3 6 6 17 8 26 5 10 -4 13 -2 8 5 -3 6 -1 14 5 18 8 4 9 3 5 -4
-4 -7 -2 -13 3 -13 6 -1 17 -2 24 -4 6 -1 23 5 37 13 l25 15 -20 -23 c-11 -13
-14 -20 -5 -15 8 5 31 10 50 11 19 1 39 3 43 3 5 1 5 6 1 13 -4 7 -3 8 4 4 6
-4 8 -14 5 -24 -6 -15 -5 -15 10 -3 14 11 17 11 17 0 1 -9 5 -8 15 5 8 11 15
16 15 11 0 -5 7 1 16 13 8 12 21 22 27 22 7 0 4 -5 -5 -11 -10 -5 -18 -15 -18
-21 0 -9 3 -9 12 0 16 16 61 16 53 -1 -4 -6 0 -4 8 5 12 15 16 16 34 3 21 -14
33 -11 33 9 0 6 -5 4 -10 -4 -5 -8 -10 -10 -10 -4 0 18 13 24 27 13 10 -9 17
-8 30 2 11 9 14 10 9 2 -5 -9 -2 -11 8 -7 9 3 16 11 16 17 0 6 7 2 15 -9 10
-12 13 -13 10 -3 -5 12 1 14 30 11 23 -3 35 0 35 8 0 9 4 9 17 -1 11 -10 14
-10 9 -1 -4 7 -2 12 4 12 6 0 8 5 4 12 -4 7 -3 8 4 4 7 -4 12 -15 13 -24 0
-11 3 -12 6 -4 2 6 18 12 34 12 16 0 29 5 29 11 0 7 10 9 25 7 18 -4 25 -1 25
11 0 14 2 14 10 1 8 -12 10 -12 10 -1 0 11 3 11 15 1 13 -11 14 -10 9 3 -5 14
-1 15 25 7 25 -7 31 -6 31 6 0 8 5 12 10 9 6 -3 10 -1 10 6 0 10 3 10 12 1 9
-9 16 -8 32 6 14 13 18 13 12 2 -6 -12 -5 -12 6 1 7 9 19 14 27 11 7 -2 17 2
22 9 6 10 9 11 9 2 0 -7 4 -13 9 -13 5 0 6 10 3 23 -5 21 -5 21 11 5 17 -17
47 -15 47 4 0 5 5 6 10 3 6 -3 13 1 16 10 5 12 9 13 14 4 5 -7 15 -9 26 -4 11
5 23 7 27 6 5 -1 5 3 2 9 -4 7 0 10 11 8 12 -2 18 2 16 11 -3 12 0 12 12 2 11
-10 16 -9 23 3 4 8 23 16 40 18 18 2 40 13 49 23 8 11 13 13 9 5 -4 -8 1 -6
10 5 9 11 19 20 23 20 4 0 6 3 5 6 -1 3 8 5 20 4 32 -3 47 5 47 24 0 14 2 14
10 1 8 -12 10 -12 16 3 5 13 10 15 20 6 10 -8 12 -6 9 11 -3 18 -2 20 10 10
10 -8 15 -8 21 1 5 8 3 9 -6 4 -9 -5 -11 -4 -6 4 6 9 11 9 24 -1 13 -11 15
-10 9 5 -6 15 -4 16 13 7 16 -9 18 -7 15 11 -4 17 -2 19 10 9 11 -10 15 -10
15 -1 0 7 5 9 12 5 8 -5 9 -2 4 11 -5 15 -4 16 9 5 13 -11 19 -7 16 12 0 3 7
5 17 4 9 -2 23 4 30 13 8 9 11 10 7 4 -4 -9 -1 -11 9 -7 9 3 13 11 9 17 -4 6
2 8 15 5 12 -4 20 -2 16 3 -5 8 10 13 29 10 5 -1 6 2 3 7 -2 4 -1 14 5 22 7
13 9 13 9 0 0 -10 7 -7 21 10 11 14 18 20 15 14 -3 -6 1 -11 8 -11 8 0 12 8 9
21 -4 17 -3 18 6 6 9 -13 15 -8 13 11 -1 3 10 5 23 4 16 -2 22 1 19 10 -3 7 0
16 7 21 8 4 10 3 5 -4 -4 -7 -2 -12 3 -12 6 0 11 10 11 23 0 16 3 18 9 8 7
-10 12 -8 24 9 11 15 16 18 20 8 3 -8 6 -6 6 6 1 12 6 16 17 12 8 -3 12 -2 9
4 -3 6 4 10 17 10 18 0 20 2 8 10 -13 8 -12 10 3 10 9 0 17 7 17 16 0 14 3 14
15 4 15 -12 16 -11 19 11 2 17 36 38 57 34 11 -2 17 0 14 6 -4 5 -11 7 -16 4
-5 -4 -9 -1 -9 4 0 10 17 15 48 14 10 -1 10 2 1 14 -7 8 -8 13 -3 12 20 -3 35
1 30 10 -3 5 4 11 15 14 14 4 20 11 16 21 -4 10 -1 13 9 9 8 -3 14 1 14 10 0
9 5 19 12 23 7 4 8 3 4 -4 -4 -7 -2 -12 3 -12 6 0 11 5 11 10 0 6 8 10 18 10
15 0 15 2 2 11 -12 9 -11 10 8 6 12 -3 20 -1 16 4 -3 5 0 9 6 9 7 0 10 7 7 14
-4 9 -1 13 6 10 7 -2 23 9 35 26 13 17 27 28 32 25 6 -3 7 1 4 9 -4 12 0 16
17 17 13 0 19 3 12 6 -10 3 -10 7 0 18 7 7 15 11 20 8 4 -2 7 3 7 11 0 9 7 16
16 16 8 0 13 4 10 9 -3 5 4 11 15 14 16 4 20 11 16 26 -3 12 0 18 7 15 6 -2
18 11 26 29 8 17 21 31 29 29 9 -2 11 3 7 13 -3 9 -2 13 4 10 17 -11 48 17 43
39 -4 17 -3 18 6 6 9 -13 11 -12 11 5 1 25 23 55 41 55 11 0 11 2 -1 10 -13 8
-12 10 3 10 12 0 16 4 11 13 -5 7 -2 7 10 -2 15 -12 17 -12 14 0 -2 8 3 13 10
11 8 -1 11 2 7 8 -3 6 -12 8 -18 5 -7 -3 -2 2 11 11 12 9 22 23 22 31 0 8 4
12 9 9 5 -3 12 1 15 10 3 8 11 12 17 8 8 -4 9 -3 5 5 -4 6 -13 9 -19 5 -7 -3
-4 1 6 9 10 9 18 19 18 24 -1 4 4 9 9 9 23 3 24 5 10 14 -12 7 -11 13 10 35
18 19 26 22 32 13 5 -8 7 -2 4 15 -3 15 -1 25 5 22 8 -6 13 9 10 29 -1 5 6 3
16 -4 10 -8 15 -10 10 -5 -4 4 0 16 8 25 17 18 17 40 0 53 -5 5 1 5 15 1 14
-3 22 -3 18 1 -4 5 -2 15 5 23 10 13 9 14 -3 7 -8 -4 1 9 20 30 19 21 29 35
23 31 -9 -5 -11 -2 -7 9 4 9 13 14 20 11 8 -3 11 0 7 11 -3 8 0 19 8 24 10 6
10 9 2 9 -7 0 -13 4 -13 10 0 5 7 6 17 3 10 -4 14 -2 10 4 -8 13 27 55 38 45
5 -4 5 -1 1 6 -6 11 -11 11 -23 0 -15 -12 -15 -11 -3 9 8 12 18 19 23 16 4 -3
8 1 6 8 -1 8 -1 21 0 29 1 13 2 13 11 0 8 -12 10 -9 10 13 0 16 4 26 9 23 5
-4 7 4 3 16 -4 17 -2 20 11 15 11 -4 14 -2 10 9 -3 8 1 22 8 31 10 11 10 14 2
9 -9 -5 -11 -2 -7 8 3 9 11 13 16 10 6 -4 5 3 -1 15 -10 17 -9 20 4 15 13 -5
15 -1 11 20 -3 15 -1 24 5 21 5 -4 6 -12 3 -18 -4 -7 -3 -9 1 -4 13 11 17 49
5 42 -6 -3 -7 1 -4 9 3 9 9 14 13 12 4 -3 12 4 19 14 7 12 8 21 2 25 -6 4 -7
11 -4 17 4 6 10 5 15 -3 5 -9 8 0 7 24 -1 26 5 42 18 53 19 15 19 16 -1 10
-19 -6 -19 -6 -1 8 10 9 16 22 13 30 -4 11 -1 13 11 9 15 -6 15 -5 3 10 -12
15 -12 20 5 33 10 9 14 13 7 10 -16 -9 -10 24 7 34 12 7 11 10 -4 16 -18 7
-18 8 2 15 15 6 22 17 22 34 0 14 6 25 13 25 7 0 8 3 2 8 -18 13 -16 32 3 25
13 -5 14 -3 5 7 -7 8 -9 20 -3 35 6 15 4 27 -3 35 -9 10 -9 12 3 8 11 -4 16 1
17 13 1 12 -3 17 -10 13 -7 -3 -5 0 4 8 11 9 13 22 9 45 -5 23 -4 30 5 27 7
-3 15 4 18 15 4 15 0 21 -11 21 -12 1 -10 5 8 15 14 8 20 14 14 15 -7 0 -14 9
-17 21 -4 17 -3 18 9 8 12 -10 13 -9 7 6 -5 15 -3 17 11 12 10 -4 15 -3 11 3
-3 6 -14 10 -23 11 -12 0 -11 3 6 9 12 5 22 12 22 15 0 4 -4 3 -10 0 -14 -9
-12 18 3 34 8 10 8 12 0 7 -6 -3 -14 -2 -18 4 -3 5 -2 10 3 10 5 0 7 12 4 26
-3 19 -1 25 7 20 6 -4 11 -4 12 1 0 4 2 24 3 43 1 19 6 42 11 50 5 9 -2 6 -15
-5 l-23 -20 18 28 c9 15 14 27 9 27 -4 0 -3 5 4 12 7 7 8 17 1 30 -5 10 -7 18
-3 18 4 0 0 8 -9 18 -14 15 -15 19 -2 19 8 0 11 -5 8 -10 -3 -6 -1 -7 6 -3 6
4 8 13 4 19 -13 21 -14 55 -2 63 8 5 9 3 4 -6 -6 -9 -4 -11 4 -6 7 5 10 11 7
14 -3 3 0 12 7 21 10 14 10 14 -5 3 -12 -10 -18 -10 -24 -1 -4 7 -3 9 3 6 14
-9 23 16 13 33 -5 8 -4 22 1 31 6 12 5 20 -1 24 -8 5 -7 11 0 20 13 16 4 55
-13 55 -8 0 -8 3 1 12 7 7 12 17 12 23 0 5 -5 3 -11 -5 -7 -11 -9 -7 -5 17 2
17 8 38 12 45 4 7 -3 4 -16 -7 l-23 -20 15 25 c8 14 14 31 13 38 -2 6 -3 17
-4 23 0 5 -6 7 -13 3 -7 -4 -8 -3 -4 5 4 6 12 8 18 5 7 -5 9 -2 5 8 -3 9 -1
20 5 26 6 6 6 12 -3 17 -8 5 -10 4 -5 -3 5 -8 1 -10 -10 -5 -15 6 -15 7 0 15
14 8 15 12 4 26 -7 9 -8 13 -2 9 7 -4 15 0 18 9 4 10 2 13 -6 8 -8 -5 -9 -2
-5 9 3 9 0 23 -8 31 -8 8 -15 21 -15 28 0 8 -6 20 -12 27 -11 10 -10 11 2 6
12 -4 15 4 15 39 0 24 -4 44 -8 43 -5 -1 -13 9 -18 22 -7 19 -6 22 6 17 12 -4
13 -2 2 15 -10 16 -9 21 3 29 12 8 12 10 1 10 -8 0 -11 6 -7 16 5 12 2 15 -11
10 -10 -4 -14 -4 -11 0 4 4 2 16 -4 27 -9 17 -8 19 8 13 17 -7 17 -6 -1 14
-11 12 -13 20 -6 20 7 0 9 5 6 10 -4 6 -10 8 -14 6 -4 -3 -8 1 -8 9 0 8 5 11
11 8 6 -4 5 1 -3 10 -7 9 -11 28 -9 42 3 14 -1 33 -9 42 -13 16 -13 15 -2 -7
9 -20 9 -23 -1 -13 -7 6 -13 31 -13 55 0 24 -4 45 -7 48 -4 3 -10 25 -13 49
-3 26 -11 48 -21 53 -13 7 -14 13 -5 30 7 13 7 18 1 14 -6 -3 -13 -2 -17 4 -3
5 -1 10 5 10 7 0 8 6 1 19 -6 10 -7 21 -3 25 3 4 -1 4 -9 1 -13 -5 -15 0 -11
27 5 31 4 32 -13 18 -17 -14 -17 -14 -6 8 9 17 9 22 -1 22 -10 0 -10 2 0 9 10
6 6 10 -15 16 -26 7 -26 8 -8 15 11 5 15 9 8 9 -6 1 -10 10 -8 20 2 11 -3 22
-11 25 -9 3 -12 10 -9 16 3 5 1 10 -4 10 -6 0 -11 12 -11 26 0 17 -4 23 -12
18 -7 -5 -9 -2 -5 8 3 9 -1 24 -8 35 -18 23 -19 36 -2 28 6 -4 -1 6 -18 20
-16 15 -25 25 -19 22 6 -4 11 0 11 7 0 9 -7 12 -15 8 -11 -4 -14 -1 -9 10 3
10 0 19 -10 22 -8 4 -13 13 -9 21 5 14 -5 20 -27 16 -5 -1 -6 3 -2 8 3 6 13 7
23 4 14 -5 14 -3 -2 9 -13 10 -16 20 -11 29 8 12 6 12 -8 0 -15 -12 -17 -12
-11 4 5 12 1 23 -11 31 -14 10 -15 14 -4 14 9 1 7 5 -6 13 -13 8 -20 22 -19
39 1 15 -2 27 -5 26 -22 -2 -41 4 -41 13 0 5 4 8 8 5 5 -3 9 1 9 9 0 8 -5 13
-11 12 -6 -1 -10 6 -10 15 1 10 -2 16 -6 13 -5 -3 -11 -1 -15 5 -3 5 -1 10 5
10 6 0 8 5 5 10 -4 6 -11 8 -16 5 -5 -4 -9 1 -9 10 0 9 -4 13 -10 10 -5 -3
-10 3 -10 14 0 12 -5 21 -11 21 -5 0 -7 5 -3 12 5 8 2 9 -11 4 -16 -6 -16 -4
-4 11 9 11 10 14 2 9 -9 -5 -13 0 -13 14 0 12 -4 18 -10 15 -5 -3 -10 1 -10 9
0 9 -5 16 -11 16 -5 0 -7 5 -4 10 3 6 -2 10 -12 10 -15 0 -16 2 -3 10 11 7 11
10 2 10 -7 0 -10 4 -7 10 4 6 -1 7 -11 3 -13 -5 -16 -3 -11 10 4 12 1 17 -11
17 -15 0 -15 2 -2 10 10 6 11 10 3 10 -18 0 -63 41 -57 52 3 4 -1 8 -8 8 -9 0
-9 3 2 10 13 8 12 10 -3 10 -10 0 -15 5 -12 10 3 6 -1 10 -9 10 -14 0 -20 11
-17 32 0 4 -5 5 -13 2 -7 -3 -19 3 -27 13 -12 16 -12 17 1 8 9 -5 2 2 -15 17
-16 15 -25 28 -19 28 5 0 16 -6 24 -12 8 -7 6 -3 -4 9 -10 12 -27 25 -37 28
-12 4 -16 12 -12 22 4 11 3 14 -6 9 -16 -10 -41 12 -34 30 4 10 0 12 -13 7
-14 -5 -16 -3 -11 11 4 10 3 15 -3 11 -6 -3 -13 1 -16 9 -3 9 -10 14 -14 11
-4 -3 -10 5 -13 16 -4 14 -10 18 -18 13 -9 -5 -10 -2 -6 9 4 12 2 14 -10 10
-10 -4 -14 -2 -9 5 3 6 -3 13 -14 17 -11 3 -20 12 -20 20 0 7 -7 16 -16 19 -8
3 -12 10 -9 16 4 6 -1 7 -11 3 -12 -4 -15 -3 -10 5 4 7 1 12 -8 12 -17 0 -48
39 -40 51 2 4 -1 11 -7 15 -8 4 -9 3 -5 -4 4 -7 2 -12 -3 -12 -6 0 -11 7 -11
16 0 8 -4 12 -10 9 -5 -3 -10 0 -10 7 0 9 -3 9 -10 -2 -9 -13 -10 -13 -11 0
-1 8 -1 19 0 23 1 5 -3 6 -9 2 -5 -3 -10 -1 -10 4 0 6 -7 11 -16 11 -8 0 -13
4 -9 9 8 14 -25 43 -42 37 -8 -3 -12 -2 -9 2 2 4 -3 16 -11 27 -13 16 -15 17
-10 3 4 -10 2 -18 -3 -18 -6 0 -10 4 -10 8 0 5 -7 17 -16 28 -8 10 -13 12 -9
4 4 -8 -2 -4 -13 9 -10 13 -24 21 -30 17 -5 -3 -13 1 -16 10 -4 10 -2 13 6 8
7 -4 8 -3 4 4 -4 6 -13 9 -20 6 -8 -3 -21 4 -29 16 -9 14 -20 19 -28 15 -8 -5
-10 -4 -5 3 7 11 -6 17 -28 13 -5 -1 -3 6 5 15 9 12 9 15 2 10 -8 -4 -13 -2
-13 4 0 6 -4 9 -9 5 -5 -3 -13 -1 -16 5 -5 8 -11 8 -20 0 -12 -10 -13 -8 -10
10 3 18 2 20 -10 10 -12 -10 -15 -9 -15 6 0 16 -2 17 -10 4 -8 -12 -10 -10
-10 8 0 16 -5 22 -17 21 -22 -4 -63 21 -63 38 0 7 -7 10 -17 6 -12 -5 -14 -3
-8 8 7 11 5 11 -10 -1 -10 -8 -16 -10 -12 -4 3 6 -5 17 -18 24 -13 7 -21 18
-18 24 4 6 -2 4 -12 -4 -11 -9 -16 -10 -11 -2 4 7 2 12 -4 12 -6 0 -8 5 -4 13
5 7 0 6 -11 -3 -13 -10 -16 -11 -11 -2 5 9 3 13 -5 11 -29 -3 -40 1 -33 14 5
7 0 6 -11 -3 -17 -13 -18 -13 -13 1 5 13 2 16 -13 12 -10 -3 -19 0 -19 6 0 6
-9 11 -21 11 -13 0 -18 4 -13 13 5 8 3 8 -9 -2 -14 -11 -18 -11 -23 3 -4 11
-14 15 -28 11 -11 -2 -15 -2 -8 1 10 4 7 11 -10 22 -13 9 -26 16 -30 14 -5 -1
-8 3 -8 9 0 8 -6 7 -17 -2 -9 -8 -14 -9 -11 -4 4 6 -2 17 -14 24 -11 7 -17 8
-14 2 4 -5 -2 -9 -13 -8 -10 0 -17 7 -14 13 3 8 -2 11 -16 7 -13 -3 -21 -1
-21 6 0 7 6 9 13 5 6 -4 8 -3 4 1 -10 12 -38 15 -32 4 4 -5 -1 -6 -9 -3 -9 3
-16 11 -16 18 0 6 -5 4 -10 -4 -7 -11 -10 -11 -10 -2 0 7 -4 10 -10 7 -5 -3
-10 2 -10 11 0 16 -2 15 -22 -2 -12 -10 -18 -14 -15 -7 4 7 -5 20 -23 33 -16
12 -30 19 -30 15 0 -3 -10 -1 -21 6 -12 6 -19 7 -15 1 3 -6 -4 -5 -19 1 -14 7
-25 17 -25 22 0 6 -4 4 -9 -4 -8 -12 -12 -12 -25 -2 -9 7 -22 11 -31 8 -8 -4
-17 -1 -21 5 -5 7 -2 8 7 3 8 -5 11 -4 6 0 -10 11 -48 14 -41 3 3 -4 0 -8 -5
-8 -6 0 -11 5 -11 10 0 6 -7 10 -15 10 -8 0 -15 4 -15 9 0 10 -32 7 -49 -3 -5
-3 -15 2 -22 12 -13 15 -12 16 4 3 9 -7 17 -9 17 -3 0 15 -26 22 -39 9 -8 -8
-11 -8 -11 2 0 11 -3 11 -15 1 -12 -10 -15 -10 -15 0 0 9 -5 8 -18 -3 -15 -14
-19 -15 -19 -2 0 8 5 11 10 8 6 -3 7 -1 3 6 -6 9 -11 9 -24 -1 -12 -10 -14
-10 -8 0 7 12 4 14 -36 15 -13 1 -26 6 -30 11 -5 8 -8 8 -8 0 0 -14 -54 -12
-73 4 -9 8 -18 9 -21 3 -6 -10 -24 -10 -41 1 -5 3 -29 5 -51 3 -37 -2 -41 0
-38 19 3 12 2 16 -2 9 -3 -7 -12 -9 -21 -6 -12 5 -14 3 -8 -8 7 -11 6 -12 -6
-2 -15 12 -48 11 -68 -2 -5 -3 -13 0 -17 6 -5 8 -3 9 6 4 9 -5 11 -4 6 3 -5 9
-13 8 -30 -3 -20 -13 -25 -13 -35 -1 -6 8 -21 12 -31 9 -11 -3 -20 0 -20 6 0
6 -9 11 -21 11 -13 0 -18 -4 -13 -12 5 -9 2 -9 -9 1 -14 11 -20 11 -34 0 -9
-8 -14 -9 -10 -3 4 7 0 15 -9 18 -9 3 -12 2 -9 -4 7 -11 -36 -7 -54 4 -5 4
-13 1 -17 -5 -4 -7 -3 -9 4 -5 6 3 13 2 16 -3 11 -18 -27 -4 -42 15 -12 16
-14 16 -9 2z m1175 -213 c-3 -3 -9 2 -12 12 -6 14 -5 15 5 6 7 -7 10 -15 7
-18z m296 -103 c3 -5 -1 -9 -9 -9 -8 0 -12 4 -9 9 3 4 7 8 9 8 2 0 6 -4 9 -8z
m794 -497 c-3 -3 -9 2 -12 12 -6 14 -5 15 5 6 7 -7 10 -15 7 -18z m-4841 -421
c-3 -3 -12 -4 -19 -1 -8 3 -5 6 6 6 11 1 17 -2 13 -5z m816 -756 c-3 -17 -2
-19 5 -9 5 7 15 10 21 7 6 -4 11 -2 11 4 0 6 5 8 10 5 6 -4 7 -12 3 -18 -4 -8
-1 -7 9 1 33 27 175 5 150 -23 -4 -5 -1 -5 6 -1 11 6 11 11 0 24 -7 10 1 6 16
-8 16 -14 26 -20 23 -14 -4 7 0 15 8 18 10 3 18 -1 22 -12 9 -24 26 -33 35
-19 4 7 6 -3 4 -21 -2 -18 1 -35 7 -39 6 -4 7 -1 2 7 -5 9 -4 11 4 6 9 -6 9
-11 -1 -24 -10 -12 -10 -14 0 -8 7 4 12 1 12 -9 0 -9 3 -14 8 -12 4 3 7 -5 7
-18 0 -13 -4 -21 -10 -18 -5 2 -1 -2 9 -11 10 -8 24 -13 30 -10 6 3 2 -2 -8
-10 -13 -10 -15 -16 -7 -16 11 0 11 -3 0 -17 -12 -15 -12 -16 5 -10 17 7 17 6
5 -10 -8 -9 -9 -14 -2 -10 6 4 14 3 18 -3 3 -5 2 -10 -3 -10 -5 0 -9 -7 -9
-15 0 -10 4 -12 12 -5 8 6 11 -3 10 -33 0 -28 6 -48 18 -60 10 -10 16 -22 12
-25 -3 -4 -10 0 -15 8 -7 11 -10 11 -10 2 0 -7 7 -15 15 -18 8 -4 12 -10 9
-15 -3 -5 0 -9 5 -9 6 0 10 -6 9 -12 -2 -7 3 -12 10 -10 8 1 11 -2 7 -8 -3 -6
-10 -8 -14 -6 -4 3 -8 -2 -8 -10 0 -8 6 -13 13 -10 8 3 16 0 20 -6 4 -7 3 -8
-4 -4 -7 4 -12 3 -12 -3 0 -5 5 -13 10 -16 6 -4 7 -13 1 -23 -10 -20 3 -62 20
-62 8 0 8 -4 -1 -14 -9 -12 -8 -17 9 -28 15 -9 17 -16 9 -25 -8 -10 -5 -15 12
-21 20 -8 21 -9 6 -15 -10 -4 -14 -12 -11 -17 5 -8 11 -8 19 -1 9 8 12 6 11
-7 0 -9 -4 -23 -9 -30 -4 -7 -1 -12 8 -12 19 0 20 -11 4 -29 -11 -11 -10 -12
1 -6 11 6 13 4 8 -8 -3 -8 3 -25 14 -38 22 -25 25 -37 6 -21 -9 8 -12 4 -12
-18 -1 -16 2 -27 6 -24 4 2 9 -3 13 -11 3 -8 0 -14 -6 -12 -6 1 -13 -4 -16
-12 -3 -9 0 -11 8 -6 8 5 11 4 6 -3 -3 -6 -15 -9 -25 -7 -12 2 -18 -2 -17 -13
0 -9 -4 -16 -11 -15 -6 1 -17 -4 -23 -13 -11 -12 -10 -14 6 -9 10 3 6 -1 -11
-9 -16 -8 -34 -12 -38 -9 -4 3 -15 -1 -24 -9 -9 -7 -14 -8 -10 -2 4 7 -2 14
-13 17 -11 3 -23 0 -27 -5 -3 -7 -1 -8 5 -4 7 4 12 2 12 -3 0 -14 -17 -14 -25
-1 -5 8 -12 7 -23 -2 -13 -11 -14 -11 -7 1 6 11 4 13 -7 8 -9 -3 -21 0 -28 6
-10 9 -11 9 -6 -1 5 -8 0 -11 -16 -8 -13 3 -23 5 -23 6 0 1 -8 3 -17 5 -11 2
-15 -2 -11 -12 5 -13 2 -13 -14 -5 -15 8 -23 8 -33 -1 -10 -10 -11 -9 -5 2 6
10 4 13 -7 8 -9 -3 -21 0 -28 6 -10 9 -11 9 -6 -1 8 -13 -19 -13 -41 1 -9 6
-11 3 -6 -10 5 -15 2 -14 -18 4 -20 18 -28 20 -39 10 -10 -9 -12 -9 -6 1 5 8
0 12 -13 12 -11 0 -23 4 -26 10 -4 6 1 7 12 4 15 -6 15 -4 -2 9 -11 9 -26 17
-33 17 -10 0 -10 5 -2 20 10 19 6 25 -14 21 -5 -1 -3 6 5 15 9 11 9 15 2 10
-9 -5 -13 0 -13 16 0 42 -3 57 -12 52 -7 -5 -12 18 -9 39 0 4 -3 7 -9 7 -5 0
-6 7 -3 17 4 11 3 14 -5 9 -7 -4 -12 -3 -12 3 0 5 5 13 10 16 6 4 8 11 4 16
-3 5 -11 6 -17 2 -7 -4 -6 1 2 10 12 15 12 17 0 12 -10 -4 -15 1 -15 15 0 11
4 20 8 20 4 0 8 5 8 11 0 6 -7 9 -14 6 -11 -4 -13 -1 -9 10 4 10 2 14 -4 10
-7 -5 -9 1 -5 15 4 16 2 19 -9 13 -11 -6 -12 -5 -1 6 17 18 15 30 -3 23 -8 -4
-15 -1 -15 5 0 6 5 11 11 11 6 0 3 7 -5 16 -19 19 -21 28 -3 19 6 -4 5 -1 -3
7 -20 17 -23 37 -10 53 9 11 7 17 -9 27 -23 14 -28 38 -9 38 6 0 0 9 -13 20
-21 19 -22 23 -10 43 8 12 10 19 6 15 -13 -12 -43 31 -38 52 3 12 0 20 -7 20
-9 0 -9 4 1 17 10 11 10 14 2 9 -9 -5 -13 1 -13 19 0 18 -4 24 -12 19 -8 -5
-8 -2 1 10 8 9 10 16 5 15 -5 -1 -16 -1 -24 1 -11 1 -10 3 4 9 17 7 17 8 2 24
-16 16 -16 17 -1 17 12 0 15 5 10 21 -5 16 -4 19 6 14 9 -6 11 -4 6 7 -3 10 3
19 20 27 15 7 23 17 20 25 -3 8 1 17 9 20 10 4 13 2 8 -7 -5 -8 -2 -7 9 2 14
11 17 11 17 0 1 -9 5 -8 15 5 15 20 50 33 39 15 -3 -5 -10 -6 -16 -3 -7 4 -8
2 -4 -5 6 -9 11 -9 22 0 8 6 14 8 14 5 0 -4 10 0 21 8 15 10 28 12 44 6 17 -7
25 -5 29 6 8 22 15 17 9 -8z m1884 0 c-3 -8 -6 -5 -6 6 -1 11 2 17 5 13 3 -3
4 -12 1 -19z m1680 0 c-3 -8 -6 -5 -6 6 -1 11 2 17 5 13 3 -3 4 -12 1 -19z
m118 1 c-3 -15 -1 -18 8 -11 7 5 22 12 35 15 19 4 22 2 18 -10 -5 -12 -3 -13
6 -6 19 15 47 12 41 -4 -4 -9 0 -11 11 -7 9 3 24 0 33 -7 11 -10 14 -10 9 -2
-5 9 -2 11 8 7 9 -3 13 -10 10 -15 -3 -5 2 -6 10 -3 9 3 16 1 16 -6 0 -6 4 -9
9 -6 5 3 12 -1 15 -10 4 -10 2 -13 -7 -8 -9 6 -9 5 0 -8 7 -8 9 -19 5 -23 -4
-5 1 -5 11 -2 11 4 16 3 12 -3 -3 -6 -1 -10 4 -10 6 0 11 -5 11 -11 0 -5 -4
-8 -9 -5 -5 3 -7 -10 -5 -29 2 -26 0 -34 -9 -28 -7 4 -5 -2 3 -12 8 -10 10
-16 4 -12 -7 4 -15 0 -18 -9 -3 -8 -2 -13 2 -10 4 2 8 -4 8 -14 0 -14 -4 -16
-13 -9 -9 8 -11 5 -8 -11 2 -12 -3 -32 -11 -45 -8 -12 -14 -27 -13 -31 4 -23
-2 -35 -13 -28 -9 5 -9 2 1 -9 12 -15 11 -17 -5 -17 -16 0 -17 -2 -4 -10 12
-8 12 -10 1 -10 -11 0 -11 -3 0 -17 10 -11 10 -14 2 -9 -7 4 -13 3 -13 -1 0
-5 6 -15 13 -22 10 -10 9 -11 -4 -6 -10 4 -20 1 -25 -6 -5 -8 -3 -10 6 -4 8 5
11 3 8 -6 -3 -8 -11 -13 -17 -11 -8 1 -9 -2 -5 -10 12 -18 14 -39 4 -33 -5 3
-11 1 -15 -5 -3 -5 -1 -10 5 -10 7 0 8 -6 1 -19 -6 -10 -7 -21 -3 -25 3 -4 -2
-4 -13 -1 -20 7 -20 6 0 -11 16 -13 17 -16 3 -11 -10 3 -20 2 -23 -3 -4 -6 0
-10 7 -11 10 0 11 -2 0 -6 -10 -4 -10 -8 -1 -19 10 -12 8 -13 -7 -7 -17 6 -18
5 -4 -12 9 -11 10 -16 3 -11 -12 7 -19 -19 -13 -49 1 -5 -4 -4 -11 3 -7 6 -18
12 -23 12 -6 0 -5 -4 2 -8 15 -10 25 -52 11 -52 -16 0 -28 -43 -17 -64 8 -15
7 -18 -4 -13 -8 3 -15 -1 -15 -9 0 -7 5 -10 10 -7 6 4 7 1 3 -6 -5 -7 -15 -10
-23 -6 -13 5 -14 3 -3 -11 12 -13 11 -17 -1 -25 -12 -7 -12 -9 1 -9 12 0 13
-2 1 -9 -8 -5 -10 -14 -6 -22 6 -9 3 -11 -11 -6 -18 7 -18 7 0 -8 17 -13 18
-15 3 -15 -12 0 -17 -8 -17 -26 0 -17 -4 -23 -12 -18 -10 6 -10 4 0 -7 14 -16
16 -33 2 -24 -6 3 -7 -1 -4 -9 3 -9 2 -16 -4 -16 -5 0 -7 -11 -4 -25 2 -15 0
-25 -7 -25 -7 0 -9 -4 -6 -10 3 -5 1 -10 -5 -10 -8 0 -7 -6 1 -21 8 -17 8 -20
-1 -14 -17 10 -30 -15 -24 -42 4 -16 1 -25 -11 -29 -13 -5 -14 -9 -3 -15 10
-6 8 -9 -7 -9 -11 0 -15 -4 -10 -8 14 -10 18 -35 4 -26 -8 5 -10 -2 -7 -24 3
-19 0 -29 -5 -25 -6 4 -8 -3 -5 -15 4 -15 2 -22 -8 -22 -12 0 -12 -4 -4 -20 8
-16 8 -20 -2 -18 -8 2 -12 -5 -10 -16 2 -11 -1 -15 -7 -11 -6 3 -12 1 -12 -4
-3 -21 -4 -26 -13 -40 -7 -11 -6 -12 5 -5 17 10 43 15 34 6 -4 -4 -9 -6 -11
-4 -3 1 -10 -3 -17 -10 -16 -15 -30 -51 -19 -44 5 3 9 -1 9 -9 0 -8 -4 -12 -9
-9 -4 3 -8 0 -8 -6 0 -6 -4 -9 -8 -6 -10 6 -9 -25 2 -42 4 -7 4 -12 -1 -11
-20 3 -25 -2 -13 -16 11 -13 10 -14 -5 -9 -14 6 -16 4 -9 -7 14 -23 13 -40 -2
-46 -7 -3 -14 -15 -14 -26 -1 -55 -4 -66 -17 -55 -16 13 -17 4 -3 -23 9 -15 7
-21 -5 -25 -9 -4 -15 -14 -14 -23 2 -25 -12 -61 -22 -55 -5 3 -4 -7 1 -22 9
-24 8 -26 -10 -21 -11 3 -18 2 -16 -2 3 -4 1 -24 -4 -44 -4 -21 -4 -35 1 -31
5 3 9 1 9 -3 0 -5 -9 -14 -20 -21 -17 -10 -18 -16 -10 -32 9 -16 8 -20 -5 -20
-8 0 -15 -5 -15 -11 0 -5 6 -7 13 -3 9 5 9 4 0 -6 -10 -11 -10 -17 0 -29 9
-12 9 -13 0 -7 -18 10 -39 -4 -22 -15 10 -6 11 -9 2 -9 -7 0 -13 -9 -13 -21 0
-13 -4 -18 -12 -13 -10 6 -10 4 -2 -7 14 -19 12 -38 -6 -49 -12 -8 -12 -10 5
-11 17 -1 16 -2 -5 -9 -14 -4 -20 -8 -13 -9 7 -1 10 -8 7 -16 -4 -8 -11 -12
-18 -8 -6 4 -5 -1 3 -10 10 -13 10 -17 1 -17 -7 0 -10 -7 -6 -16 4 -10 2 -13
-6 -8 -7 5 -9 -1 -6 -19 3 -15 2 -24 -3 -22 -4 3 -10 1 -14 -5 -3 -5 -1 -10 4
-10 6 0 11 -5 11 -11 0 -5 -4 -7 -10 -4 -5 3 -10 -3 -10 -14 0 -11 -5 -23 -11
-27 -6 -3 -9 -21 -7 -39 2 -20 0 -33 -7 -32 -5 1 -11 -17 -13 -41 -2 -23 -7
-40 -13 -37 -5 4 -9 2 -9 -4 0 -5 6 -12 13 -14 6 -3 1 -6 -13 -7 -14 -1 -19
-4 -12 -7 6 -2 12 -11 12 -19 0 -9 -5 -12 -12 -8 -8 5 -9 2 -5 -9 3 -10 3 -17
-2 -17 -4 0 -6 -11 -4 -23 3 -13 -2 -31 -10 -39 -12 -12 -13 -18 -4 -27 9 -10
9 -12 -3 -9 -8 2 -14 -3 -12 -11 2 -9 -3 -11 -14 -7 -13 5 -14 3 -7 -6 21 -27
10 -54 -20 -49 -4 1 -2 -8 5 -19 11 -18 10 -24 -12 -41 -14 -12 -18 -17 -10
-13 13 6 13 5 0 -7 -8 -8 -20 -21 -28 -29 -12 -13 -13 -13 -9 2 7 19 -20 18
-33 -1 -4 -7 -23 -14 -41 -15 -19 -1 -40 -5 -48 -10 -10 -6 -12 -5 -7 2 11 18
-5 14 -27 -5 -19 -17 -20 -17 -8 4 11 22 10 22 -15 12 -15 -5 -33 -8 -40 -5
-7 2 -15 2 -18 -1 -12 -13 -56 -9 -56 5 0 7 -5 10 -10 7 -6 -4 -7 -11 -4 -17
4 -5 -6 -2 -22 8 -15 11 -25 14 -21 8 4 -7 0 -14 -8 -18 -9 -3 -15 0 -15 10 0
8 -5 12 -10 9 -6 -4 -7 -11 -4 -17 5 -7 2 -8 -7 -2 -8 5 -27 10 -44 11 -46 4
-54 6 -53 12 3 28 -2 33 -19 20 -10 -7 -15 -9 -11 -5 4 5 0 15 -10 23 -9 8
-11 12 -5 8 9 -4 11 -1 7 9 -3 9 -10 13 -15 10 -5 -3 -9 0 -9 6 0 6 -4 9 -9 5
-5 -3 -13 0 -17 6 -4 8 -3 9 4 5 8 -5 11 1 10 18 -1 15 -6 26 -11 26 -4 0 -5
5 -2 10 3 6 1 10 -4 10 -6 0 -11 5 -11 11 0 5 4 7 10 4 6 -3 7 1 4 9 -3 9 -11
13 -16 10 -6 -4 -7 2 -3 16 5 16 4 20 -5 15 -9 -5 -10 -2 -5 14 4 14 1 23 -9
27 -11 4 -13 11 -7 22 6 11 4 20 -7 30 -12 9 -12 11 -2 6 13 -7 13 -5 1 9 -7
9 -18 14 -23 11 -6 -4 -7 0 -1 12 5 11 8 26 7 34 -1 8 -2 21 -3 28 0 7 -6 10
-12 6 -7 -4 -9 0 -5 14 4 12 1 26 -9 36 -10 9 -12 16 -5 16 6 0 8 5 5 10 -4 6
-10 8 -13 6 -4 -2 -7 11 -6 30 1 19 -1 32 -5 30 -4 -3 -13 -1 -21 5 -12 7 -12
9 4 9 15 0 16 3 6 15 -7 8 -17 12 -23 8 -6 -3 -7 -1 -3 6 4 6 12 9 17 5 12 -7
-10 33 -28 53 -7 8 -10 19 -7 27 3 7 -1 18 -9 24 -8 7 -12 23 -9 37 2 14 0 25
-6 25 -5 0 -13 7 -16 16 -5 14 -4 15 9 4 13 -11 14 -10 9 4 -3 9 -13 16 -21
16 -8 0 -11 5 -8 10 4 6 12 8 18 4 7 -3 1 4 -13 16 -14 12 -20 19 -14 16 12
-6 29 23 19 32 -3 3 -5 0 -5 -6 0 -7 -7 -12 -15 -12 -8 0 -15 5 -15 11 0 5 5
7 10 4 6 -3 10 -1 10 4 0 6 -5 11 -11 11 -6 0 -9 7 -5 15 3 10 -1 15 -12 16
-10 0 -12 3 -4 6 6 2 12 12 12 21 0 15 -2 15 -10 2 -8 -13 -10 -12 -10 3 0 9
-6 17 -12 18 -10 0 -10 2 0 6 6 2 12 14 12 24 0 14 -4 18 -12 13 -9 -5 -9 -2
1 9 7 9 9 17 5 17 -14 0 -38 61 -37 93 0 20 -3 25 -12 17 -8 -7 -10 -1 -8 23
4 26 2 29 -7 17 -10 -13 -11 -12 -6 3 3 9 9 25 12 35 5 13 4 14 -4 3 -8 -11
-11 -9 -14 10 -2 13 -9 23 -15 22 -7 -2 -10 6 -8 17 2 11 0 22 -6 25 -5 4 -5
14 2 27 9 17 9 20 -4 15 -11 -4 -14 2 -12 24 1 16 -2 29 -7 29 -6 0 -8 7 -5
14 4 10 1 13 -7 10 -7 -3 -13 2 -13 10 0 8 4 13 9 10 4 -3 8 0 8 5 0 6 -4 11
-10 11 -5 0 -10 7 -10 15 0 8 -4 15 -10 15 -6 0 -6 9 0 25 7 20 6 25 -5 25 -8
0 -14 3 -14 8 4 23 -2 42 -12 36 -7 -4 -7 1 1 16 7 13 8 20 2 16 -6 -3 -13 -2
-16 3 -4 5 -1 13 5 16 7 5 3 15 -12 31 -12 13 -19 24 -14 24 5 0 4 5 -3 12 -7
7 -12 17 -12 23 0 5 5 3 10 -5 8 -13 10 -12 10 3 0 9 -9 25 -19 34 -11 9 -17
21 -13 27 13 21 10 35 -6 29 -11 -5 -13 -3 -6 8 15 24 13 39 -7 52 -10 6 -19
17 -19 24 0 18 -14 23 -30 11 -12 -8 -11 -9 5 -4 19 6 19 6 1 -9 -10 -8 -24
-16 -30 -18 -7 -2 -6 -10 4 -22 12 -15 12 -17 1 -10 -11 6 -13 4 -8 -8 4 -12
1 -17 -11 -17 -15 0 -15 -2 -2 -10 12 -8 12 -10 1 -10 -9 0 -12 -9 -9 -30 3
-22 1 -27 -7 -20 -9 8 -12 0 -11 -30 1 -27 -2 -40 -11 -40 -8 0 -13 -13 -13
-36 0 -24 -4 -33 -11 -28 -8 5 -10 -1 -7 -19 3 -16 0 -28 -8 -31 -8 -3 -14
-20 -14 -41 0 -26 -3 -34 -12 -29 -10 6 -10 4 0 -8 11 -14 10 -19 -8 -36 -18
-17 -20 -24 -11 -41 9 -16 9 -19 -2 -16 -9 4 -13 -3 -12 -22 0 -18 -5 -27 -13
-25 -9 2 -10 -3 -3 -16 7 -14 5 -21 -10 -31 -16 -9 -18 -15 -10 -25 9 -10 7
-15 -6 -20 -13 -6 -14 -9 -4 -15 10 -6 9 -11 -4 -25 -12 -12 -13 -16 -3 -16
10 0 9 -3 -2 -10 -8 -5 -10 -10 -5 -10 6 0 -1 -8 -15 -16 -14 -8 -17 -13 -7
-10 13 4 16 2 10 -7 -4 -6 -7 -22 -8 -34 0 -12 -4 -25 -9 -30 -5 -5 -6 -3 -2
5 4 6 2 12 -3 12 -6 0 -11 -6 -11 -14 0 -8 -3 -16 -7 -19 -5 -2 -2 -2 6 0 10
2 11 0 4 -9 -6 -7 -9 -21 -8 -31 2 -9 -1 -15 -6 -11 -14 8 -11 -30 4 -45 10
-11 8 -11 -13 -1 -23 12 -24 12 -11 -4 12 -14 12 -19 1 -29 -10 -10 -11 -9 -5
2 6 10 4 12 -4 7 -9 -6 -9 -11 0 -22 10 -12 8 -19 -9 -34 -13 -13 -19 -26 -15
-37 4 -10 2 -14 -4 -10 -5 3 -10 0 -10 -8 0 -8 5 -12 11 -9 6 3 2 -2 -8 -10
-11 -9 -15 -16 -8 -16 6 0 9 -7 6 -15 -4 -8 -11 -12 -18 -8 -6 4 -4 -2 4 -12
8 -10 10 -16 4 -12 -16 10 -28 -25 -12 -35 10 -6 8 -8 -4 -8 -10 0 -18 -7 -18
-15 0 -8 5 -15 10 -15 6 0 10 -4 10 -10 0 -5 -6 -7 -14 -4 -7 3 -16 -2 -20
-11 -3 -10 -2 -14 5 -9 8 5 8 1 0 -13 -6 -11 -7 -23 -4 -27 3 -3 1 -6 -6 -6
-8 0 -11 -6 -7 -16 3 -8 2 -12 -3 -9 -5 3 -12 1 -16 -5 -3 -5 -2 -10 3 -10 5
0 9 -7 9 -15 0 -11 -4 -12 -14 -3 -11 8 -12 7 -7 -6 4 -10 -1 -26 -12 -38 -11
-12 -14 -18 -8 -15 8 4 11 -2 10 -17 0 -13 -6 -22 -12 -19 -16 6 -27 -14 -13
-23 8 -5 9 -3 4 6 -5 9 -4 11 4 6 6 -4 8 -13 4 -19 -4 -7 -8 -20 -9 -29 -1
-10 -3 -21 -4 -25 -2 -5 -4 -15 -4 -23 -1 -8 -9 -14 -19 -14 -14 2 -15 -1 -6
-12 9 -11 9 -14 -1 -14 -9 0 -9 -4 1 -17 10 -11 10 -14 2 -9 -9 5 -13 0 -13
-14 0 -12 -4 -19 -9 -15 -5 3 -13 1 -16 -5 -4 -6 -3 -10 2 -9 22 4 23 -3 2
-21 -17 -14 -19 -18 -6 -14 13 5 16 2 11 -10 -3 -9 -10 -14 -14 -11 -4 3 -10
-4 -13 -15 -4 -14 0 -20 11 -21 10 0 5 -6 -13 -14 -23 -11 -26 -14 -10 -15 16
0 17 -2 5 -9 -8 -6 -19 -7 -25 -3 -5 3 -4 -2 3 -11 12 -14 12 -19 -1 -31 -8
-8 -18 -12 -21 -8 -4 3 -4 -2 0 -12 6 -15 4 -17 -6 -11 -9 6 -12 4 -8 -6 4
-10 -2 -15 -20 -17 -14 -1 -31 -7 -37 -13 -7 -7 -4 -8 10 -4 16 5 17 5 5 -3
-8 -6 -18 -8 -23 -5 -5 3 -13 -1 -18 -8 -7 -12 -9 -12 -9 0 0 11 -3 11 -17 0
-11 -10 -14 -10 -9 -1 9 16 -6 16 -23 0 -11 -10 -13 -10 -7 0 10 18 -4 15 -27
-5 -19 -17 -20 -17 -8 4 10 20 9 21 -17 14 -15 -4 -40 -7 -57 -5 -16 1 -36 -3
-44 -10 -11 -8 -13 -8 -7 2 11 18 -4 15 -27 -5 -19 -18 -20 -17 -7 6 9 17 9
21 0 16 -17 -10 -130 -13 -130 -2 0 4 -4 5 -10 2 -5 -3 -10 -2 -10 4 0 5 -9 8
-20 6 -12 -2 -20 2 -20 9 0 8 -8 20 -17 27 -16 13 -17 12 -4 -4 12 -15 12 -17
-3 -11 -9 3 -17 15 -17 25 -2 32 -4 37 -13 46 -5 5 -6 3 -2 -4 4 -7 5 -13 2
-13 -3 0 -10 9 -16 19 -7 14 -7 22 2 27 7 4 8 3 4 -4 -4 -7 -2 -12 3 -12 13 0
13 3 5 24 -3 9 -11 13 -18 9 -7 -4 -7 -1 1 9 7 8 10 18 6 22 -4 4 0 4 8 1 19
-7 22 22 5 45 -5 8 -7 12 -2 8 13 -11 36 18 36 47 0 14 4 24 8 21 5 -3 9 1 9
9 0 8 -5 15 -11 15 -6 0 -3 5 6 10 10 6 15 19 13 30 -3 13 0 18 7 14 7 -5 9
-1 5 9 -3 10 -2 17 4 17 6 0 7 5 4 10 -3 6 -1 10 6 10 7 0 9 10 7 25 -3 14 -1
25 4 25 5 0 6 5 3 10 -3 6 0 10 8 10 10 0 13 9 11 31 -3 22 0 28 9 23 7 -5 5
0 -3 11 -9 11 -10 16 -2 11 8 -5 12 1 12 19 0 14 4 24 8 21 8 -5 12 8 13 47 0
9 4 15 9 12 6 -3 7 1 4 9 -4 11 0 16 12 16 17 0 17 1 -1 13 -13 10 -15 16 -6
21 6 4 8 12 5 18 -4 7 -2 8 4 4 12 -7 16 5 13 32 -1 7 5 15 13 18 9 3 13 11
10 16 -4 6 0 14 7 19 10 6 10 9 2 9 -7 0 -10 7 -6 16 5 13 8 13 15 2 7 -9 8
-8 4 6 -9 26 3 58 17 49 7 -3 4 3 -6 15 -19 20 -18 21 5 15 18 -4 20 -3 8 6
-13 10 -13 11 0 11 9 0 11 3 5 8 -5 4 -11 13 -13 21 -3 12 -1 12 14 0 15 -12
17 -12 9 0 -6 11 -4 13 11 8 17 -7 18 -6 2 6 -17 14 -14 62 3 51 8 -4 10 0 9
21 0 3 7 19 15 35 9 17 11 30 6 30 -5 0 -7 9 -4 20 3 11 10 17 16 13 6 -4 8 0
4 10 -3 8 1 21 8 27 8 7 12 16 9 22 -3 5 0 16 8 25 9 12 9 15 1 9 -9 -5 -11
-2 -7 8 3 9 11 13 16 10 6 -4 5 4 -2 16 -8 15 -8 20 -1 16 10 -6 16 13 12 37
0 4 7 7 16 7 15 0 16 2 3 10 -12 7 -11 13 10 34 13 15 18 26 12 26 -7 0 -12
-5 -12 -12 0 -6 -3 -8 -7 -5 -3 4 4 19 18 33 21 22 21 24 4 18 -17 -7 -18 -5
-8 8 7 8 9 19 5 24 -4 4 0 3 8 -3 12 -9 15 -7 16 13 1 13 -2 21 -7 18 -5 -3
-6 2 -3 10 3 9 11 13 17 9 6 -4 8 2 4 16 -5 19 -3 20 11 9 12 -10 14 -10 8 -1
-14 25 -15 52 -1 47 10 -4 13 2 10 25 -3 22 -1 29 7 25 7 -5 9 0 5 15 -5 19
-3 20 10 9 14 -12 15 -11 5 9 -15 28 -15 33 2 33 8 0 18 4 21 10 3 5 0 7 -8 4
-8 -3 -14 2 -14 12 0 9 9 19 21 22 19 5 19 6 0 13 -18 7 -18 8 0 8 15 1 16 4
7 15 -10 12 -8 17 8 26 12 6 21 16 21 22 0 6 -7 5 -17 -3 -16 -12 -16 -11 0 8
14 16 15 22 5 26 -8 3 -6 6 6 6 15 1 16 4 7 15 -10 11 -7 17 10 29 11 9 18 20
14 27 -4 6 -2 17 4 24 6 7 12 23 15 37 2 13 8 23 14 22 5 -1 8 11 6 28 -2 18
0 28 6 24 6 -3 7 1 4 9 -4 11 0 16 12 16 16 0 17 2 4 11 -12 8 -12 12 -2 16
10 4 10 8 0 21 -10 12 -10 14 0 8 8 -5 12 0 12 14 0 14 4 19 13 14 7 -5 6 0
-3 11 -9 11 -10 16 -2 11 8 -5 12 -1 12 11 0 11 6 25 13 32 10 11 10 13 0 7
-7 -4 -13 -2 -13 3 0 6 7 11 16 11 13 0 14 3 5 14 -8 10 -9 16 -1 21 6 3 7 11
4 17 -4 7 -2 8 4 4 8 -5 12 2 12 19 0 18 4 24 13 19 9 -6 9 -4 -1 8 -10 13
-10 18 -1 24 8 5 9 3 4 -6 -5 -9 -4 -11 4 -6 6 4 9 12 5 17 -3 5 0 17 7 25 7
8 8 14 3 12 -5 -2 -10 2 -11 7 -1 6 6 8 15 7 13 -3 14 -1 3 11 -8 11 -9 17 -1
22 6 3 7 11 4 17 -4 6 -2 8 3 5 11 -7 27 28 23 52 -1 7 3 10 8 7 5 -3 7 6 4
21 -4 20 -2 24 9 18 12 -7 12 -6 1 7 -11 14 -11 18 1 25 7 4 16 16 20 26 4 11
3 16 -3 12 -6 -3 -7 1 -4 9 3 9 11 13 18 9 6 -4 5 1 -3 10 -11 14 -11 18 3 23
11 4 13 10 7 18 -6 8 -6 17 1 26 8 12 9 12 4 -3 -3 -10 -2 -16 3 -13 5 3 11
15 14 26 3 11 1 18 -3 15 -12 -7 1 38 14 50 6 6 11 19 11 30 0 13 6 19 15 17
8 -2 12 0 8 4 -4 4 -2 14 5 22 10 13 9 14 -3 7 -13 -8 -13 -6 -2 8 8 9 17 15
20 14 4 -1 7 1 7 5 0 4 9 14 20 23 11 9 14 13 6 9 -10 -5 -12 -3 -7 5 5 7 11
10 14 7 3 -3 11 -1 18 5 8 7 14 6 20 -2 5 -8 3 -9 -6 -4 -9 6 -11 4 -5 -5 6
-10 12 -8 24 8 11 14 27 20 53 20 21 0 36 -3 33 -7 -2 -4 2 -8 9 -8 8 0 12 5
10 11 -5 14 116 9 133 -5 7 -7 14 -6 18 1 4 7 20 10 36 8 16 -3 29 -1 29 2 0
4 11 5 25 2 14 -2 22 -9 18 -15 -3 -6 -1 -7 5 -3 6 4 26 0 43 -9 17 -9 28 -12
25 -6 -4 6 -2 11 3 11 6 0 11 -7 11 -15 0 -8 5 -15 10 -15 6 0 10 -8 10 -17 0
-15 2 -16 10 -3 8 13 10 12 10 -3 0 -12 4 -16 13 -11 7 5 6 0 -3 -11 -9 -11
-10 -16 -2 -11 8 5 12 0 12 -16 0 -18 2 -20 10 -8 8 13 10 13 10 -2 0 -9 -6
-19 -12 -21 -8 -3 -7 -6 4 -6 9 -1 20 -6 24 -13 4 -7 3 -8 -4 -4 -7 4 -12 2
-12 -3 0 -6 5 -11 10 -11 6 0 10 -20 10 -44 0 -25 5 -48 10 -51 6 -3 10 -17
10 -31 0 -13 5 -24 11 -24 5 0 7 -4 4 -10 -3 -5 -2 -10 3 -10 6 0 8 -9 5 -20
-4 -15 0 -20 13 -21 12 0 14 -3 6 -6 -10 -4 -9 -9 5 -20 10 -8 12 -12 6 -8 -9
4 -13 -1 -13 -14 0 -15 7 -21 23 -22 21 0 21 -1 2 -9 -18 -7 -19 -8 -2 -15 9
-4 17 -11 17 -17 0 -5 -4 -6 -10 -3 -5 3 -10 -1 -10 -10 0 -10 5 -13 12 -9 7
5 9 2 5 -9 -4 -10 -2 -14 7 -11 7 3 13 -2 13 -10 0 -8 -5 -12 -10 -9 -5 3 -7
0 -5 -8 3 -8 11 -13 17 -12 6 2 11 -4 11 -13 0 -9 -5 -13 -12 -9 -7 4 -5 0 5
-8 19 -16 24 -32 5 -21 -7 4 -8 3 -4 -4 4 -7 14 -12 22 -12 8 0 12 -5 9 -10
-4 -6 -11 -8 -16 -5 -5 4 -4 -5 3 -19 6 -14 15 -26 20 -26 5 0 4 -9 -2 -20 -6
-11 -7 -20 -3 -19 4 1 15 1 23 0 13 -1 13 -2 0 -11 -11 -7 -11 -10 -2 -10 7 0
10 -4 7 -10 -3 -5 -2 -10 2 -10 5 0 9 -9 9 -20 0 -11 -4 -20 -8 -20 -4 0 -8
-5 -8 -11 0 -6 7 -9 15 -6 8 4 17 1 21 -5 4 -7 3 -8 -5 -4 -9 6 -10 0 -5 -21
4 -15 11 -29 15 -31 4 -2 5 -10 2 -19 -5 -12 -3 -14 8 -8 12 7 12 6 1 -7 -11
-14 -11 -18 0 -25 8 -4 14 -17 14 -28 0 -11 5 -19 11 -18 8 2 9 -7 3 -28 -8
-27 -7 -29 6 -18 13 10 13 8 4 -17 -10 -28 -9 -28 6 -9 16 20 16 20 9 -4 -6
-18 -4 -22 6 -15 12 6 12 5 0 -9 -11 -14 -11 -17 0 -17 11 0 11 -2 -1 -10 -13
-8 -13 -10 1 -10 19 0 33 -26 18 -35 -5 -4 -6 -11 -3 -17 4 -6 10 -5 16 3 6
10 7 7 3 -10 -4 -14 -3 -21 2 -18 12 7 10 -23 -2 -42 -5 -9 -4 -12 2 -8 6 4
16 0 23 -8 7 -8 9 -15 4 -15 -5 0 -2 -5 6 -10 12 -8 12 -10 -5 -10 -17 0 -17
-2 -5 -10 8 -5 11 -10 7 -10 -4 0 -3 -9 3 -20 6 -11 16 -18 21 -14 7 4 7 -1 0
-14 -8 -15 -8 -23 1 -28 7 -4 8 -3 4 4 -4 7 -5 12 -2 12 3 0 10 -10 17 -21 7
-13 7 -19 1 -15 -6 3 -13 2 -17 -4 -3 -5 -1 -10 4 -10 6 0 11 -11 11 -25 0
-14 5 -25 10 -25 7 0 7 -7 -1 -21 -8 -15 -8 -19 0 -15 6 4 11 2 11 -4 0 -6 5
-8 13 -4 7 5 6 0 -3 -11 -9 -11 -10 -16 -2 -11 6 4 12 2 12 -3 0 -6 -5 -11
-10 -11 -6 0 -2 -10 10 -22 11 -12 20 -34 20 -49 0 -15 6 -30 13 -32 9 -4 8
-8 -3 -16 -8 -6 -10 -11 -4 -11 6 0 14 -13 17 -29 3 -16 13 -36 22 -45 12 -12
13 -16 3 -16 -10 0 -10 -2 1 -9 8 -5 11 -16 8 -25 -4 -9 -2 -16 4 -16 6 0 8
-7 5 -16 -3 -9 -2 -12 5 -9 6 4 10 1 8 -6 -1 -8 -1 -23 0 -34 1 -17 3 -18 11
-5 6 10 10 11 10 3 0 -7 5 -13 11 -13 6 0 9 7 5 15 -3 8 -1 15 4 15 5 0 7 7 4
15 -4 8 -1 15 5 15 6 0 11 14 11 30 0 20 5 30 15 30 9 0 12 6 9 15 -4 9 0 15
7 15 9 0 10 3 4 8 -15 10 -18 35 -4 26 9 -5 10 -2 6 9 -3 10 -2 17 4 17 6 0 7
5 4 10 -3 6 0 10 7 11 10 0 10 2 -1 6 -11 4 -8 10 10 25 15 13 18 18 7 14 -12
-3 -15 -1 -11 9 3 8 10 12 17 8 6 -3 2 4 -9 17 -11 13 -14 20 -7 16 21 -12 33
3 21 26 -6 11 -7 18 -2 15 5 -3 15 -2 23 4 13 7 13 9 0 9 -11 1 -10 4 5 17 15
12 16 14 3 10 -15 -5 -16 -3 -6 18 6 13 15 22 21 18 6 -3 7 -1 3 6 -4 6 -2 19
6 28 9 12 9 15 0 9 -9 -5 -11 -1 -8 16 3 13 5 29 5 36 1 7 5 11 10 8 5 -3 12
1 15 10 4 10 2 13 -7 8 -6 -4 -4 1 5 12 14 16 15 23 5 34 -10 10 -9 11 2 5 11
-6 13 -3 8 15 -4 17 -1 23 14 27 19 5 19 6 2 20 -10 8 -13 12 -7 9 13 -6 27
21 19 34 -3 5 0 12 6 16 8 5 9 3 4 -6 -6 -9 -4 -11 4 -5 9 5 10 10 2 18 -7 7
-7 14 0 24 9 9 8 13 0 13 -7 0 -9 5 -6 10 4 6 12 7 18 4 8 -5 8 -3 0 6 -10 11
-8 20 13 47 14 18 20 33 15 33 -6 0 -11 -4 -11 -10 0 -5 -6 -10 -12 -10 -7 1
-4 8 8 18 13 11 20 26 17 40 -2 13 5 29 17 39 10 9 17 20 14 25 -3 5 0 15 6
23 10 12 10 18 0 30 -10 12 -9 16 4 21 14 5 14 9 4 22 -10 12 -10 14 0 8 6 -4
12 -5 12 -2 0 2 3 12 7 22 5 13 3 15 -8 9 -8 -4 -4 2 9 14 18 18 21 26 11 37
-10 12 -9 13 6 8 15 -6 16 -4 6 14 -8 15 -8 23 1 28 7 5 9 2 4 -7 -4 -8 0 -5
8 5 9 11 12 24 8 28 -12 12 -2 59 11 51 6 -4 8 2 4 16 -4 18 -2 21 11 16 14
-5 15 -4 5 6 -15 15 -17 33 -3 24 6 -4 10 6 10 24 0 16 5 33 10 36 8 5 7 11
-1 21 -10 12 -9 13 5 8 12 -5 15 -2 10 10 -4 10 -1 16 7 16 11 0 11 3 -1 10
-13 8 -12 10 4 10 19 0 19 1 1 20 -16 17 -16 20 -3 15 13 -5 15 -2 11 14 -4
16 -1 21 13 22 18 0 18 1 -1 9 -16 7 -17 9 -3 9 9 1 20 6 24 13 4 7 3 8 -4 4
-8 -5 -12 1 -12 14 0 12 5 18 10 15 6 -3 10 3 10 14 0 12 6 21 13 21 9 0 8 3
-2 9 -9 6 -10 11 -2 15 6 4 11 16 11 27 0 12 4 17 11 13 6 -3 3 5 -6 20 -17
25 -17 26 1 19 17 -6 17 -5 5 10 -12 16 -12 17 5 10 17 -6 17 -5 5 10 -12 16
-12 17 5 10 16 -6 17 -5 6 9 -15 18 0 34 20 22 7 -5 8 -3 2 7 -14 23 -13 39 2
39 9 0 12 4 9 10 -3 6 1 7 10 4 10 -4 15 -2 13 7 -2 7 4 13 12 14 8 1 14 7 12
14 -1 7 2 10 8 6 6 -3 8 -11 5 -16 -4 -5 1 -9 10 -9 10 0 14 5 10 13 -4 6 1 3
10 -8 l17 -20 -4 20 c-2 17 2 20 30 19 17 0 32 3 32 9 0 5 11 2 24 -7 14 -9
27 -12 30 -7 8 13 56 20 62 9 4 -6 10 -5 15 3 7 12 9 11 9 -1 1 -12 3 -11 11
3 13 23 19 22 14 -4z m-3908 -55 c-3 -3 -12 -4 -19 -1 -8 3 -5 6 6 6 11 1 17
-2 13 -5z m-1300 -499 c0 -8 -4 -12 -9 -9 -5 3 -6 10 -3 15 9 13 12 11 12 -6z
m5283 -249 c0 -3 -4 -8 -10 -11 -5 -3 -10 -1 -10 4 0 6 5 11 10 11 6 0 10 -2
10 -4z m-1193 -551 c0 -8 -4 -12 -9 -9 -5 3 -6 10 -3 15 9 13 12 11 12 -6z
m-632 -35 c3 -5 1 -10 -4 -10 -6 0 -11 5 -11 10 0 6 2 10 4 10 3 0 8 -4 11
-10z m-255 -214 c0 -3 -4 -8 -10 -11 -5 -3 -10 -1 -10 4 0 6 5 11 10 11 6 0
10 -2 10 -4z m1014 -152 c3 -8 2 -12 -4 -9 -6 3 -10 10 -10 16 0 14 7 11 14
-7z m2621 -34 c3 -6 -1 -7 -9 -4 -18 7 -21 14 -7 14 6 0 13 -4 16 -10z m-6918
-382 c-3 -8 -6 -5 -6 6 -1 11 2 17 5 13 3 -3 4 -12 1 -19z m3100 -10 c-3 -8
-6 -5 -6 6 -1 11 2 17 5 13 3 -3 4 -12 1 -19z m800 -350 c-3 -8 -6 -5 -6 6 -1
11 2 17 5 13 3 -3 4 -12 1 -19z m-3740 -203 c0 -8 -4 -12 -9 -9 -5 3 -6 10 -3
15 9 13 12 11 12 -6z m77 -204 c-6 -6 -24 19 -24 34 1 6 7 1 15 -9 8 -11 12
-22 9 -25z m6181 -421 c-3 -5 -12 -10 -18 -10 -7 0 -6 4 3 10 19 12 23 12 15
0z m-314 -423 c-10 -9 -11 -8 -5 6 3 10 9 15 12 12 3 -3 0 -11 -7 -18z m-5171
-161 c0 -11 -19 -15 -25 -6 -3 5 1 10 9 10 9 0 16 -2 16 -4z m114 -122 c3 -8
2 -12 -4 -9 -6 3 -10 10 -10 16 0 14 7 11 14 -7z m60 -60 c3 -8 2 -12 -4 -9
-6 3 -10 10 -10 16 0 14 7 11 14 -7z m3646 -634 c0 -5 -5 -10 -11 -10 -5 0 -7
5 -4 10 3 6 8 10 11 10 2 0 4 -4 4 -10z m-140 -55 c0 -8 -4 -15 -10 -15 -5 0
-7 7 -4 15 4 8 8 15 10 15 2 0 4 -7 4 -15z"/>
<path d="M4030 5729 c0 -5 5 -7 10 -4 6 3 10 8 10 11 0 2 -4 4 -10 4 -5 0 -10
-5 -10 -11z"/>
<path d="M3720 4800 c-9 -6 -10 -10 -3 -10 6 0 15 5 18 10 8 12 4 12 -15 0z"/>
<path d="M5060 4609 c0 -5 5 -7 10 -4 6 3 10 8 10 11 0 2 -4 4 -10 4 -5 0 -10
-5 -10 -11z"/>
<path d="M4595 4170 c-3 -5 -1 -10 4 -10 6 0 11 5 11 10 0 6 -2 10 -4 10 -3 0
-8 -4 -11 -10z"/>
<path d="M4666 3972 c-3 -5 1 -9 9 -9 8 0 12 4 9 9 -3 4 -7 8 -9 8 -2 0 -6 -4
-9 -8z"/>
<path d="M5805 3631 c-3 -5 -2 -12 3 -15 5 -3 9 1 9 9 0 17 -3 19 -12 6z"/>
<path d="M5640 3099 c0 -5 5 -7 10 -4 6 3 10 8 10 11 0 2 -4 4 -10 4 -5 0 -10
-5 -10 -11z"/>
<path d="M5070 2876 c0 -2 7 -7 16 -10 8 -3 12 -2 9 4 -6 10 -25 14 -25 6z"/>
<path d="M5270 2866 c0 -2 7 -7 16 -10 8 -3 12 -2 9 4 -6 10 -25 14 -25 6z"/>
<path d="M4836 7862 c-3 -5 1 -9 9 -9 8 0 12 4 9 9 -3 4 -7 8 -9 8 -2 0 -6 -4
-9 -8z"/>
<path d="M4899 7847 c7 -7 14 -8 21 -1 6 6 2 10 -12 11 -16 2 -18 -1 -9 -10z"/>
<path d="M3075 7780 c-3 -5 -1 -10 4 -10 6 0 11 5 11 10 0 6 -2 10 -4 10 -3 0
-8 -4 -11 -10z"/>
<path d="M2800 7650 c-9 -6 -10 -10 -3 -10 6 0 15 5 18 10 8 12 4 12 -15 0z"/>
<path d="M2510 7499 c0 -5 5 -7 10 -4 6 3 10 8 10 11 0 2 -4 4 -10 4 -5 0 -10
-5 -10 -11z"/>
<path d="M2686 7463 c-6 -14 -5 -15 5 -6 7 7 10 15 7 18 -3 3 -9 -2 -12 -12z"/>
<path d="M2238 7183 c7 -3 16 -2 19 1 4 3 -2 6 -13 5 -11 0 -14 -3 -6 -6z"/>
<path d="M6690 7165 c13 -14 26 -25 28 -25 3 0 -5 11 -18 25 -13 14 -26 25
-28 25 -3 0 5 -11 18 -25z"/>
<path d="M6710 6991 c0 -10 19 -25 25 -20 1 2 -3 10 -11 17 -8 7 -14 8 -14 3z"/>
<path d="M7135 6520 c3 -5 8 -10 11 -10 2 0 4 5 4 10 0 6 -5 10 -11 10 -5 0
-7 -4 -4 -10z"/>
<path d="M1165 6090 c-3 -5 -2 -10 4 -10 5 0 13 5 16 10 3 6 2 10 -4 10 -5 0
-13 -4 -16 -10z"/>
<path d="M7746 5657 c3 -10 9 -15 12 -12 3 3 0 11 -7 18 -10 9 -11 8 -5 -6z"/>
<path d="M7875 4351 c-3 -5 -2 -12 3 -15 5 -3 9 1 9 9 0 17 -3 19 -12 6z"/>
<path d="M748 4333 c7 -3 16 -2 19 1 4 3 -2 6 -13 5 -11 0 -14 -3 -6 -6z"/>
<path d="M947 3569 c7 -7 15 -10 18 -7 3 3 -2 9 -12 12 -14 6 -15 5 -6 -5z"/>
<path d="M7728 3393 c7 -3 16 -2 19 1 4 3 -2 6 -13 5 -11 0 -14 -3 -6 -6z"/>
<path d="M1153 2725 c0 -8 6 -16 13 -19 7 -3 10 2 7 15 -6 22 -20 26 -20 4z"/>
<path d="M7410 2649 c0 -5 5 -7 10 -4 6 3 10 8 10 11 0 2 -4 4 -10 4 -5 0 -10
-5 -10 -11z"/>
<path d="M1280 2523 c0 -6 8 -17 18 -24 16 -13 16 -13 2 6 -8 11 -16 22 -17
24 -2 2 -3 0 -3 -6z"/>
<path d="M1440 2456 c0 -2 8 -10 18 -17 15 -13 16 -12 3 4 -13 16 -21 21 -21
13z"/>
<path d="M7270 2445 c-7 -9 -8 -15 -2 -15 5 0 12 7 16 15 3 8 4 15 2 15 -2 0
-9 -7 -16 -15z"/>
<path d="M7123 2065 c0 -8 4 -12 9 -9 5 3 6 10 3 15 -9 13 -12 11 -12 -6z"/>
<path d="M7040 1979 c0 -5 5 -7 10 -4 6 3 10 8 10 11 0 2 -4 4 -10 4 -5 0 -10
-5 -10 -11z"/>
<path d="M6967 1910 c-9 -11 -13 -20 -7 -20 5 0 14 9 20 20 6 11 9 20 8 20 -2
0 -11 -9 -21 -20z"/>
<path d="M6798 1743 c7 -3 16 -2 19 1 4 3 -2 6 -13 5 -11 0 -14 -3 -6 -6z"/>
<path d="M6620 1580 c-9 -6 -10 -10 -3 -10 6 0 15 5 18 10 8 12 4 12 -15 0z"/>
<path d="M2870 1106 c0 -2 7 -7 16 -10 8 -3 12 -2 9 4 -6 10 -25 14 -25 6z"/>
<path d="M2930 1080 c0 -5 5 -10 11 -10 5 0 7 5 4 10 -3 6 -8 10 -11 10 -2 0
-4 -4 -4 -10z"/>
<path d="M5250 8399 c0 -5 5 -7 10 -4 6 3 10 8 10 11 0 2 -4 4 -10 4 -5 0 -10
-5 -10 -11z"/>
<path d="M5526 8318 c3 -5 10 -6 15 -3 13 9 11 12 -6 12 -8 0 -12 -4 -9 -9z"/>
<path d="M7316 7237 c3 -10 9 -15 12 -12 3 3 0 11 -7 18 -10 9 -11 8 -5 -6z"/>
<path d="M1379 7213 c-13 -16 -12 -17 4 -4 9 7 17 15 17 17 0 8 -8 3 -21 -13z"/>
<path d="M8180 5909 c0 -5 5 -7 10 -4 6 3 10 8 10 11 0 2 -4 4 -10 4 -5 0 -10
-5 -10 -11z"/>
<path d="M8385 3530 c-3 -5 1 -10 10 -10 9 0 13 5 10 10 -3 6 -8 10 -10 10 -2
0 -7 -4 -10 -10z"/>
<path d="M540 2850 c0 -5 5 -10 11 -10 5 0 7 5 4 10 -3 6 -8 10 -11 10 -2 0
-4 -4 -4 -10z"/>
<path d="M620 2670 c0 -5 5 -10 11 -10 5 0 7 5 4 10 -3 6 -8 10 -11 10 -2 0
-4 -4 -4 -10z"/>
<path d="M7946 2377 c3 -10 9 -15 12 -12 3 3 0 11 -7 18 -10 9 -11 8 -5 -6z"/>
<path d="M770 2349 c0 -5 5 -7 10 -4 6 3 10 8 10 11 0 2 -4 4 -10 4 -5 0 -10
-5 -10 -11z"/>
</g>
</svg>
